<?xml version="1.0" encoding="utf-8"?>
<!-- Generator: Adobe Illustrator 26.3.1, SVG Export Plug-In . SVG Version: 6.00 Build 0)  -->
<svg version="1.1" id="forma_mbl" xmlns="http://www.w3.org/2000/svg" xmlns:xlink="http://www.w3.org/1999/xlink" x="0px" y="0px"
	 viewBox="0 0 448.5 657.6" style="enable-background:new 0 0 448.5 657.6;" xml:space="preserve">
<style type="text/css">
	.st0{fill:#0098D0;}
	.st1{fill:url(#SVGID_1_);}
</style>
<rect id="Rectangle_320" y="0" class="st0" width="448" height="601"/>
<path id="Path_107" class="st0" d="M448.4,640.5c0,0-75.4-17.8-139-22.6S204,628.9,162.7,648.2s-83.2,3.7-95.8,0S0,629.5,0,629.5
	v-33.1l448.3,0.3L448.4,640.5z"/>
<radialGradient id="SVGID_1_" cx="224.0083" cy="366.3713" r="294.5286" gradientUnits="userSpaceOnUse">
	<stop  offset="0" style="stop-color:#0098D0"/>
	<stop  offset="0.478" style="stop-color:#0098D0"/>
	<stop  offset="1" style="stop-color:#007CAA"/>
</radialGradient>
<path class="st1" d="M448,194.7c-83.5-51-171.3-66.9-199.6,30.2c-59.8,205.5-81.5-7.1-179.7,80.3S-6.5,518.3,39.5,556.7
	C85.6,595.2,232.1,580.5,305,531c49.8-33.8,101.8-61.8,143-75.8V194.7z"/>
</svg>
