<svg xmlns="http://www.w3.org/2000/svg" width="43" height="37.524" viewBox="0 0 43 37.524">
  <g id="Group_53" data-name="Group 53" transform="translate(0.34 0.707)">
    <line id="Line_23" data-name="Line 23" x2="42" transform="translate(0.16 29.292)" fill="none" stroke="#00aae8" stroke-linecap="round" stroke-linejoin="round" stroke-width="1"/>
    <path id="Path_129" data-name="Path 129" d="M39.5,34.895c0-6.356-9.079-5.448-9.079-5.448A8.535,8.535,0,0,0,22.251,24a8.535,8.535,0,0,0-8.171,5.448S5,28.539,5,34.895l3.131,6.259a1.816,1.816,0,0,0,1.623,1H34.748a1.816,1.816,0,0,0,1.623-1Z" transform="translate(-1.368 -5.841)" fill="none" stroke="#00aae8" stroke-linecap="round" stroke-linejoin="round" stroke-width="1"/>
    <path id="Path_130" data-name="Path 130" d="M11.92,11c-2.724,2.724,2.724,4.54,0,7.263" transform="translate(-1.933 -4.644)" fill="none" stroke="#00aae8" stroke-linecap="round" stroke-linejoin="round" stroke-width="1"/>
    <path id="Path_131" data-name="Path 131" d="M35.92,11c2.724,2.724-2.724,4.54,0,7.263" transform="translate(-4.143 -4.644)" fill="none" stroke="#00aae8" stroke-linecap="round" stroke-linejoin="round" stroke-width="1"/>
    <path id="Path_132" data-name="Path 132" d="M23.84,4c-5.448,5.448,5.437,7.263,0,12.711" transform="translate(-2.958 -4)" fill="none" stroke="#00aae8" stroke-linecap="round" stroke-linejoin="round" stroke-width="1"/>
  </g>
</svg>
