<svg xmlns="http://www.w3.org/2000/svg" width="36.529" height="33.822" viewBox="0 0 36.529 33.822">
  <g id="Group_47" data-name="Group 47" transform="translate(0.5 0.5)">
    <path id="Path_111" data-name="Path 111" d="M14.9,31.643C14.092,31.5,2.33,35.821,2.33,35.821c2.855-2.728,4.35-5.4,4-7.98A13.3,13.3,0,0,1,1,17.492C1,9.488,8.952,3,18.763,3S36.527,9.488,36.527,17.492,28.575,31.986,18.763,31.986a21.78,21.78,0,0,1-3.862-.343Z" transform="translate(-0.998 -3)" fill="none" stroke="#00aae8" stroke-linecap="round" stroke-linejoin="round" stroke-width="1"/>
    <path id="Path_112" data-name="Path 112" d="M27.9,9.53c5.368,1.1,9.344,5.059,9.344,9.786a9.4,9.4,0,0,1-4.211,7.569" transform="translate(-7.123 -4.487)" fill="none" stroke="#00aae8" stroke-linecap="round" stroke-linejoin="round" stroke-width="1"/>
  </g>
</svg>
