<?xml version="1.0" encoding="utf-8"?>
<!-- Generator: Adobe Illustrator 26.3.1, SVG Export Plug-In . SVG Version: 6.00 Build 0)  -->
<svg version="1.1" id="forma" xmlns="http://www.w3.org/2000/svg" xmlns:xlink="http://www.w3.org/1999/xlink" x="0px" y="0px"
	 viewBox="0 0 2011 745.4" style="enable-background:new 0 0 2011 745.4;" xml:space="preserve">
<style type="text/css">
	.st0{fill:#0098D0;}
	.st1{fill:url(#SVGID_1_);}
</style>
<rect id="Rectangle_5" y="0" class="st0" width="2011" height="456"/>
<path id="Path_107" class="st0" d="M2011,590.9c0,0-304.8-42.9-439.7-74.1c-183.2-42.4-656.5,22-841.7,108.2s-373,16.5-429.8,0
	S0.1,541.5,0.1,541.5V393.8l2010.9,1.5V590.9z"/>
<radialGradient id="SVGID_1_" cx="887.3205" cy="441.5099" r="609.6721" gradientTransform="matrix(1 0 0 -1 0 745.8898)" gradientUnits="userSpaceOnUse">
	<stop  offset="0" style="stop-color:#0098D0"/>
	<stop  offset="0.478" style="stop-color:#0098D0"/>
	<stop  offset="1" style="stop-color:#007CAA"/>
</radialGradient>
<path class="st1" d="M1249.8,0H765.2C663.9,320.7,622-37.5,449.8,115.7c-177.1,157.6-135.7,384.4-52.6,453.7S744.5,612.3,876,523
	s271.6-156.1,346.6-154.2s202.5,18.6,225.5-104C1457.4,215.6,1367.5,98.4,1249.8,0z"/>
</svg>
