<svg xmlns="http://www.w3.org/2000/svg" width="25.629" height="30.814" viewBox="0 0 25.629 30.814">
  <g id="Group_109" data-name="Group 109" transform="translate(-4.5 -0.5)">
    <path id="Path_134" data-name="Path 134" d="M28.333,30.814a1.3,1.3,0,0,0,1.3-1.3V8.743A7.745,7.745,0,0,0,21.884,1H6.3A1.3,1.3,0,0,0,5,2.3V29.518a1.3,1.3,0,0,0,1.3,1.3Z" fill="none" stroke="#ffae00" stroke-linecap="round" stroke-linejoin="round" stroke-width="1"/>
    <path id="Path_135" data-name="Path 135" d="M33,1.158V6.241a1.3,1.3,0,0,0,1.3,1.3h5.081" transform="translate(-9.852 -0.056)" fill="none" stroke="#ffae00" stroke-linecap="round" stroke-linejoin="round" stroke-width="1"/>
    <path id="Path_136" data-name="Path 136" d="M14.847,28.944A1.944,1.944,0,0,1,12.9,30.889H10.958V27H12.9A1.944,1.944,0,0,1,14.847,28.944Z" transform="translate(-2.096 -9.148)" fill="none" stroke="#ffae00" stroke-linecap="round" stroke-linejoin="round" stroke-width="1"/>
    <line id="Line_33" data-name="Line 33" y1="3.889" transform="translate(8.862 21.739)" fill="none" stroke="#ffae00" stroke-linecap="round" stroke-linejoin="round" stroke-width="1"/>
    <path id="Path_137" data-name="Path 137" d="M20.958,27a3.889,3.889,0,1,1,0,7.778Z" transform="translate(-5.615 -9.148)" fill="none" stroke="#ffae00" stroke-linecap="round" stroke-linejoin="round" stroke-width="1"/>
    <path id="Path_138" data-name="Path 138" d="M30.958,34.778V28.3a1.3,1.3,0,0,1,1.3-1.3h2.593" transform="translate(-9.134 -9.148)" fill="none" stroke="#ffae00" stroke-linecap="round" stroke-linejoin="round" stroke-width="1"/>
    <line id="Line_34" data-name="Line 34" x2="2.593" transform="translate(21.824 21.739)" fill="none" stroke="#ffae00" stroke-linecap="round" stroke-linejoin="round" stroke-width="1"/>
  </g>
</svg>
