<svg xmlns="http://www.w3.org/2000/svg" width="22.268" height="22.268" viewBox="0 0 22.268 22.268">
  <g id="Group_20" data-name="Group 20" transform="translate(0.5 0.5)">
    <path id="Path_101" data-name="Path 101" d="M21.317,26.634A5.317,5.317,0,1,0,16,21.317,5.317,5.317,0,0,0,21.317,26.634Z" transform="translate(-10.683 -10.683)" fill="none" stroke="#ef6f09" stroke-linecap="round" stroke-linejoin="round" stroke-width="1"/>
    <path id="Path_102" data-name="Path 102" d="M23.951,8H13.317A5.317,5.317,0,0,0,8,13.317V23.951a5.317,5.317,0,0,0,5.317,5.317H23.951a5.317,5.317,0,0,0,5.317-5.317V13.317A5.317,5.317,0,0,0,23.951,8Z" transform="translate(-8 -8)" fill="none" stroke="#ef6f09" stroke-linecap="round" stroke-linejoin="round" stroke-width="1"/>
    <g id="Group_19" data-name="Group 19" transform="translate(16.615 3.988)">
      <path id="Path_103" data-name="Path 103" d="M33.665,15.329a.665.665,0,0,1,0-1.329" transform="translate(-33 -14)" fill="none" stroke="#ef6f09" stroke-width="1"/>
      <path id="Path_104" data-name="Path 104" d="M34,15.329A.665.665,0,0,0,34,14" transform="translate(-33.335 -14)" fill="none" stroke="#ef6f09" stroke-width="1"/>
    </g>
  </g>
</svg>
