<svg xmlns="http://www.w3.org/2000/svg" width="35.356" height="33.844" viewBox="0 0 35.356 33.844">
  <g id="Group_45" data-name="Group 45" transform="translate(-1.5 -2.439)">
    <path id="Path_109" data-name="Path 109" d="M20.08,32.659c0-3.123,1.537-4.685,4.66-4.685h7.808a1.562,1.562,0,0,0,1.562-1.562V4.55a1.562,1.562,0,0,0-1.562-1.562H24.74a4.141,4.141,0,0,0-4.685,4.685A4.141,4.141,0,0,0,15.37,2.988H7.562A1.562,1.562,0,0,0,6,4.55V26.413a1.562,1.562,0,0,0,1.562,1.562H15.37C18.493,27.975,20.08,29.536,20.08,32.659Z" transform="translate(-0.877)" fill="none" stroke="#00aae8" stroke-linecap="round" stroke-linejoin="round" stroke-width="1"/>
    <path id="Path_110" data-name="Path 110" d="M33.233,7h1.562a1.562,1.562,0,0,1,1.562,1.562V30.425a1.562,1.562,0,0,1-1.562,1.562H26.986c-3.123,0-5.466,1.562-5.466,4.685H16.836c0-3.123-2.342-4.685-5.466-4.685H3.562A1.562,1.562,0,0,1,2,30.425V8.562A1.562,1.562,0,0,1,3.562,7H5.123" transform="translate(0 -0.888)" fill="none" stroke="#00aae8" stroke-linecap="round" stroke-linejoin="round" stroke-width="1"/>
    <line id="Line_13" data-name="Line 13" y2="24" transform="translate(19 8)" fill="none" stroke="#00aae8" stroke-linecap="round" stroke-linejoin="round" stroke-width="1"/>
  </g>
</svg>
