<svg xmlns="http://www.w3.org/2000/svg" width="24.05" height="22.952" viewBox="0 0 24.05 22.952">
  <g id="Group_21" data-name="Group 21" transform="translate(0.5 0.5)">
    <path id="Path_105" data-name="Path 105" d="M8.488,26.952H3V12.683H8.488Zm9.878-9.878a2.2,2.2,0,0,0-2.2,2.2v7.683H10.683V12.683h5.488v1.63a6.923,6.923,0,0,1,4.379-1.641c3.251,0,5.5,2.415,5.5,6.975v7.3H20.562V19.269A2.2,2.2,0,0,0,18.366,17.074ZM8.488,7.744A2.744,2.744,0,1,1,5.744,5,2.744,2.744,0,0,1,8.488,7.744Z" transform="translate(-3 -5)" fill="none" stroke="#ef6f09" stroke-linecap="round" stroke-linejoin="round" stroke-width="1"/>
  </g>
</svg>
