<svg id="Group_2" data-name="Group 2" xmlns="http://www.w3.org/2000/svg" xmlns:xlink="http://www.w3.org/1999/xlink" width="137.848" height="113.189" viewBox="0 0 137.848 113.189">
  <defs>
    <clipPath id="clip-path">
      <rect id="Rectangle_3" data-name="Rectangle 3" width="137.848" height="113.189" fill="none"/>
    </clipPath>
  </defs>
  <g id="Group_1" data-name="Group 1" clip-path="url(#clip-path)">
    <path id="Path_1" data-name="Path 1" d="M130.028,163.1c.043.09.037.238.219.248.049,0,.1.117.138.188q.786,1.5,1.43,3.066c.269.652.538,1.305.825,1.95q1.14,2.563,2.3,5.118c.158.35.351.685.517,1.032.29.6.573,1.21.859,1.815l.939,1.989c.013-.1.026-.161.026-.217.014-1.726.02-3.452.041-5.178.016-1.339.051-2.677.08-4.016.012-.531.017-1.064.049-1.594.055-.9.113-1.81.2-2.712.067-.683.155-1.366.285-2.04a14.349,14.349,0,0,1,.42-1.506.984.984,0,0,1,.863-.679c.085-.015.163-.07.248-.088.194-.041.37-.162.595-.035.113.064.3,0,.447.007a.345.345,0,0,1,.2.068,7.229,7.229,0,0,1,.633.614.527.527,0,0,1,.066.335c-.012.339-.054.677-.062,1.015s0,.692.017,1.038c.029.842.065,1.683.094,2.525.022.641.039,1.281.055,1.922q.028,1.137.051,2.275.031,1.569.06,3.138c.006.318.013.635.014.953q0,1.233,0,2.465c0,.547.01,1.094,0,1.641-.017.642-.06,1.283-.085,1.924-.015.374-.012.75-.026,1.124-.017.457-.04.914-.065,1.371-.038.677-.1,1.354-.114,2.032a9.3,9.3,0,0,1-.269,2.359c-.088.317-.2.63-.3.942a.677.677,0,0,1-.117.183,7.582,7.582,0,0,1-.512.635,1.086,1.086,0,0,1-.376.2,2.527,2.527,0,0,1-.468.155.582.582,0,0,1-.311-.036c-.241-.1-.476-.21-.707-.329a.526.526,0,0,1-.168-.175c-.089-.128-.167-.263-.248-.394a2.259,2.259,0,0,1-.979-.365,2.417,2.417,0,0,1-.958-1.167c-.47-1.116-.933-2.235-1.4-3.351-.255-.608-.505-1.219-.773-1.822q-.768-1.734-1.555-3.46c-.4-.868-.807-1.729-1.2-2.6-.286-.625-.557-1.258-.835-1.886a.9.9,0,0,0-.164-.264c-.009.135-.029.271-.027.406.009.532.028,1.063.039,1.6.015.742.023,1.484.04,2.226.007.309.039.619.046.928s-.011.622,0,.933c.014.53.039,1.059.058,1.589,0,.136,0,.273,0,.41,0,.669,0,1.337.009,2.005.012.844.039,1.688.053,2.533.015.933.022,1.867.036,2.8,0,.284.034.568.03.851-.012.759-.037,1.518-.055,2.277,0,.183.016.368,0,.549a3.9,3.9,0,0,1-.366,1.587c-.013.023-.016.073-.026.073-.262.016-.208.263-.3.4-.111.174-.135.42-.351.507-.245.1-.473.233-.741.345.005-.1.008-.176.012-.249l-.047-.016-.146.287a.825.825,0,0,1-.516-.061.112.112,0,0,0-.092,0,.618.618,0,0,1-.664-.05c-.023-.015-.047-.051-.065-.048-.314.058-.43-.262-.67-.355a.623.623,0,0,1-.284-.318,4.43,4.43,0,0,1-.33-1.181,35,35,0,0,1-.135-3.653c-.02-.495-.005-.991-.01-1.487s-.015-.972-.023-1.459c-.018-1.11-.043-2.22-.052-3.33-.022-2.617-.05-5.234-.052-7.851,0-1.432.044-2.865.073-4.3.01-.5.03-.991.05-1.486.035-.843.063-1.686.113-2.528.069-1.143.159-2.284.327-3.418a9.456,9.456,0,0,1,.594-2.195,1.047,1.047,0,0,1,.581-.59,3.743,3.743,0,0,1,.559-.216.625.625,0,0,1,.5-.015c.092.051.241,0,.364-.006.054,0,.124-.01.161.019q.328.256.64.532a.24.24,0,0,1,.051.152c.009.118.009.238.006.356a.9.9,0,0,0,.387.916,1.048,1.048,0,0,0,.258.118m11.142,20.622h.054q-.009-.073-.018-.146l-.036.005Z" transform="translate(-89.801 -114.891)" fill="#161615"/>
    <path id="Path_2" data-name="Path 2" d="M366.592,273.389c.034-.295.351-.155.516-.32l.045.206a.62.62,0,0,1,.138-.048c.047-.005.1.027.145.014a.579.579,0,0,1,.7.195,1.247,1.247,0,0,0,.273.2c-.066.181.18.256.171.431l.046-.129.045,0a5.053,5.053,0,0,1,.152.621c.134,1.136.5,2.225.675,3.352.082.523.149,1.048.223,1.571.094.669.2,1.337.279,2.008q.17,1.487.3,2.978c.047.528.058,1.059.086,1.588.023.433.063.866.067,1.3.006.7-.028,1.392-.013,2.088a14.641,14.641,0,0,1-.082,2,11.347,11.347,0,0,1-.238,1.407,3.542,3.542,0,0,1-.65,1.315c-.117.152-.2.329-.3.492a1.547,1.547,0,0,1-.878.607c-.122.041-.252.084-.241.276l-.176-.125-.117.178c-.068-.016-.146-.063-.2-.043-.285.106-.567-.026-.852.011a1.467,1.467,0,0,1-.77-.239,2.866,2.866,0,0,1-1.173-1.342c-.627-1.045-1.222-2.11-1.843-3.159-.364-.615-.767-1.207-1.126-1.825-.341-.586-.673-1.18-.962-1.793-.449-.954-.869-1.922-1.28-2.893-.214-.5-.383-1.029-.574-1.544a.205.205,0,0,0-.121-.12v.537c0,.446,0,.892,0,1.338,0,.282.008.564.008.846,0,.6-.007,1.205,0,1.807,0,.365.028.729.03,1.093,0,.412-.013.823-.015,1.235-.006,1.246-.031,2.493,0,3.739a13.267,13.267,0,0,1-.25,2.454,1.2,1.2,0,0,1-.358.723,2.075,2.075,0,0,0-.291.463.515.515,0,0,1-.344.246,1.9,1.9,0,0,0-.385.186l-.058-.188-.123.2c-.278,0-.549.015-.818-.006a1.2,1.2,0,0,1-.408-.139,3.084,3.084,0,0,1-.58-.327,1.2,1.2,0,0,1-.37-.722c-.095-.437-.149-.884-.229-1.324a14.641,14.641,0,0,1-.23-2.734c.012-1.661-.011-3.323.007-4.985.009-.87.073-1.74.115-2.61.039-.806.074-1.612.123-2.417.059-.96.127-1.92.2-2.879.052-.7.1-1.408.176-2.107.075-.645.186-1.287.3-1.926a1.876,1.876,0,0,1,.235-.58,1.3,1.3,0,0,1,.85-.535,3.024,3.024,0,0,1,.5-.106.817.817,0,0,1,.271.086.443.443,0,0,1,.412-.021,1.07,1.07,0,0,1,.292.182c.2.157.342.379.548.539a.757.757,0,0,1,.2.376c.039.133.085.212.236.212a.811.811,0,0,1,.689.369c.1.143.281.23.4.365a1.916,1.916,0,0,1,.282.426q.454.924.887,1.858c.154.331.282.674.431,1.008.078.175.183.337.26.512.147.335.273.679.427,1.011.2.44.428.87.639,1.306.091.188.166.384.252.574q.632,1.388,1.267,2.775c.132.29.253.586.4.866.312.581.639,1.153.962,1.727a1.081,1.081,0,0,0,.136.148c.007-.125.016-.2.016-.281,0-1.295.016-2.59,0-3.885-.011-.852-.056-1.7-.1-2.555-.037-.659-.109-1.315-.154-1.974-.049-.721-.1-1.444-.124-2.166-.027-.7-.041-1.408-.036-2.112a7.879,7.879,0,0,1,.1-1.147,1.7,1.7,0,0,1,.23-.53.2.2,0,0,1,.191-.107.383.383,0,0,0,.332-.092c.025-.028.109,0,.208,0m3.571,12.393h.014v-.131h-.014Z" transform="translate(-253.891 -195.61)" fill="#161615"/>
    <path id="Path_3" data-name="Path 3" d="M305.34,291.365a.365.365,0,0,1-.348.338.264.264,0,0,0-.178.08,1.637,1.637,0,0,1-.316.159v-.279l-.043-.015-.154.319c-.2,0-.418.064-.606-.1v-.265c-.1.141-.1.141.006.259-.017.03-.032.085-.05.085-.234.01-.477.065-.679-.122a.422.422,0,0,0-.165-.059.536.536,0,0,1-.147-.037c-.119-.081-.223-.186-.347-.257a.946.946,0,0,1-.435-.546,5.782,5.782,0,0,1-.264-1.159,28.251,28.251,0,0,1-.122-3.024c-.012-.8,0-1.6,0-2.4-.007-1.2-.03-2.4-.027-3.6,0-.559.051-1.117.077-1.676.01-.2.012-.4.024-.605.05-.9.095-1.793.157-2.689a13.907,13.907,0,0,1,.345-2.306c.052-.214.088-.431.133-.646.02-.093,0-.208.14-.239.021,0,.046-.059.045-.089-.011-.239.136-.325.338-.36a.682.682,0,0,0,.2-.035.8.8,0,0,0,.16-.157l.168.117c.157-.134.245-.456.52-.159l.063-.191.034.2c.118-.031.243.058.365-.05.031-.028.105,0,.158-.01s.12.047.209-.028c.115-.1.3.085.333.3a1.243,1.243,0,0,1,.121.056c.039.023.073.052.125.09-.052.264.2.434.255.692l.079-.3.045-.009a.519.519,0,0,1,.041.151c-.008.238-.023.477-.038.715a12.431,12.431,0,0,0,0,1.853c.043.5.044,1,.076,1.5s.085,1,.123,1.5c.022.292.032.586.049.9a.925.925,0,0,0,.179-.028c.31-.112.623-.218.924-.35a1.973,1.973,0,0,0,.459-.3,8.235,8.235,0,0,0,1.554-1.739,4.242,4.242,0,0,0,.776-1.625,5.732,5.732,0,0,0,.062-1.886,2.557,2.557,0,0,0-.226-.7,3.176,3.176,0,0,0-1.061-1.343,3.282,3.282,0,0,0-1.76-.548c-.623-.008-1.248-.031-1.87.005-.509.03-1.013.136-1.506.207-.039.089-.065.147-.089.206-.014.034-.015.093-.036.1-.267.094-.251.392-.408.562a.273.273,0,0,1-.08.07c-.137.06-.274.119-.415.17-.094.033-.191-.036-.3.041-.074.051-.226-.014-.343-.024a.441.441,0,0,0-.1.015.834.834,0,0,1-.773-.246.185.185,0,0,0-.119-.054c-.191,0-.271-.125-.332-.272-.12-.287-.239-.574-.351-.864a1.288,1.288,0,0,1-.1-.359,1.787,1.787,0,0,1-.037-.6,1.46,1.46,0,0,1,.118-.3,2.439,2.439,0,0,1,1.189-.972,5.764,5.764,0,0,1,1.846-.571c.471-.06.938-.155,1.409-.219.343-.047.689-.08,1.035-.1.475-.029.951-.059,1.426-.055a9.248,9.248,0,0,1,2.864.441,5.6,5.6,0,0,1,1.849,1.042,9.917,9.917,0,0,1,1.616,1.787,5.01,5.01,0,0,1,.995,2.654,6.455,6.455,0,0,1-.14,2.459,7.7,7.7,0,0,1-.606,1.353c-.155.279-.292.569-.451.846a9.182,9.182,0,0,1-.509.817c-.192.266-.412.512-.629.759-.235.268-.481.527-.765.837.112.333.238.733.382,1.127.4,1.085.791,2.171,1.205,3.25a19,19,0,0,1,.823,2.652c.144.642.258,1.292.378,1.939a2.029,2.029,0,0,1-.16,1.223.28.28,0,0,0-.278.284.375.375,0,0,1-.281.306.2.2,0,0,0-.157.218l0,.015c-.235-.008-.325.249-.533.292l-.064.014-.085-.367-.04,0-.033.409c-.113,0-.2,0-.291,0-.258-.009-.257-.011-.343-.27a1.41,1.41,0,0,0-.075-.156c-.138.185.016.273,0,.4a.841.841,0,0,1-.65-.121,1.027,1.027,0,0,0-.306-.1l-.125-.213c-.451-.065-.6-.4-.727-.783-.256-.788-.314-1.617-.528-2.412-.32-1.186-.653-2.368-.979-3.552-.18-.654-.358-1.308-.538-1.961-.049-.175-.1-.348-.152-.515-.525-.078-1.046-.03-1.59-.116,0,.1-.01.233,0,.363.045.509.1,1.018.144,1.528.031.384.056.768.064,1.153.026,1.155.03,2.31.068,3.464a6.423,6.423,0,0,1-.161,1.552.862.862,0,0,1-.286.543c-.09.072-.12.22-.174.336-.067.144-.117.3-.279.371l-.191.076.028.052.164-.128m.054-15.1c.061-.254.061-.254-.081-.306l.081.306m1.285,5.54-.023-.073a.2.2,0,0,0-.235.138l.259-.065m-1.333-6.361.032,0v-.176l-.052,0,.019.175m.012-1.741.027,0v-.234l-.041,0,.014.233m.1,2.793-.047-.009c-.008.063-.017.126-.026.189l.043.007.029-.187" transform="translate(-214.785 -191.62)" fill="#161615"/>
    <path id="Path_4" data-name="Path 4" d="M370.262,168.519a.739.739,0,0,1,.543-.05c.049,0,.132.081.131.124,0,.189.163.17.27.245v.622l.3-.257.046.021a1.06,1.06,0,0,1-.049.219,4.783,4.783,0,0,0-.287,1.913c-.013.408-.037.816-.052,1.223-.008.219,0,.439-.012.658-.07,1.134-.138,2.269-.222,3.4-.055.739-.137,1.476-.2,2.215-.059.637-.112,1.274-.172,1.911-.083.894-.178,1.786-.251,2.681-.043.527-.049,1.057-.081,1.585-.019.31-.074.619-.081.928-.015.715-.014,1.43-.011,2.145,0,.22.023.44.043.659s.046.261.26.282q.681.066,1.364.1c.282.015.565,0,.864,0a10.1,10.1,0,0,0,.754-2.157,33.215,33.215,0,0,0,.738-3.971c.17-1.252.323-2.507.5-3.759a40.1,40.1,0,0,1,.772-4.078,8.223,8.223,0,0,1,.74-1.916,1.106,1.106,0,0,1,.509-.514c.035-.016.078-.055.082-.088.024-.216.2-.252.355-.281a2.77,2.77,0,0,1,.647-.05.515.515,0,0,1,.343.15,3.5,3.5,0,0,0,.645.667.437.437,0,0,1,.112.214,4.035,4.035,0,0,1,.161,1.786c-.06.482-.074.969-.121,1.453-.078.783-.168,1.565-.249,2.348-.049.473-.084.948-.138,1.42-.1.892-.215,1.782-.319,2.673-.049.418-.072.839-.134,1.255-.1.643-.195,1.288-.332,1.924a19.741,19.741,0,0,1-1.008,3.339,4.525,4.525,0,0,1-.461.962c-.307.421-.535.894-.882,1.284a.361.361,0,0,1-.105.085,3.044,3.044,0,0,1-1.593.416,15.19,15.19,0,0,0-2.085.027,15.594,15.594,0,0,1-1.591-.014,11.564,11.564,0,0,1-1.178-.079,4.432,4.432,0,0,1-.7-.207,4.372,4.372,0,0,1-1.565-1.033,1.244,1.244,0,0,1-.269-.347,4.608,4.608,0,0,1-.571-2.075c-.012-.688-.01-1.378.018-2.066s.093-1.372.15-2.056c.072-.877.141-1.754.232-2.628.088-.847.2-1.691.307-2.536.129-1.027.255-2.054.4-3.079q.218-1.564.469-3.123c.1-.641.211-1.282.351-1.915a6.7,6.7,0,0,1,.936-2.127,1.259,1.259,0,0,1,.656-.453c.2-.083.424-.132.637-.2.175-.052.23-.037.4.112m-.2,15.053.041-.007V183.2h-.024l-.017.37m.1-1.081-.027.011v.284h.027Zm8.649-7.194.058,0q-.006-.112-.01-.224l-.058,0,.01.219m-3.459,16.425-.023-.05-.139.064.026.056.136-.07m-4.445-17.658-.051,0c-.005.062-.011.125-.016.187l.053,0q.007-.093.014-.187m-.692,7.832-.027,0,.008.124h.019Z" transform="translate(-261.968 -120.617)" fill="#161615"/>
    <path id="Path_5" data-name="Path 5" d="M229.185,297.1c.045.1-.029.126-.094.125-.132,0-.264-.022-.421-.038-.041-.048-.1-.114-.15-.18l.15-.09-.1-.187-.042.015v.263l.039.047-.04.024-.1-.249c-.028.163-.141.141-.251.157a.753.753,0,0,1-.048-.1c-.091-.317-.09-.317-.391-.257a1.5,1.5,0,0,1-.239-.247.958.958,0,0,1-.128-.351,1.462,1.462,0,0,0-.106-.386,1.533,1.533,0,0,1-.1-.587c-.014-1.653-.015-3.306-.026-4.959-.006-.9-.033-1.8-.03-2.7,0-1.221.016-2.442.051-3.663.04-1.411.1-2.822.167-4.233.037-.768.1-1.535.165-2.3.024-.292.083-.58.125-.87.014-.1.024-.2.039-.322a1.245,1.245,0,0,0-.292-.137,1.536,1.536,0,0,1-.686-.432.208.208,0,0,1-.079-.107,2.448,2.448,0,0,1-.075-.707.809.809,0,0,1,.314-.456,4.76,4.76,0,0,1,.869-.521,5.983,5.983,0,0,1,2.479-.517c.293,0,.586-.019.878,0,.327.017.653.064.98.094a8.272,8.272,0,0,1,1.42.274,5.447,5.447,0,0,1,2.381,1.242,3.364,3.364,0,0,1,.755.886c.051.1.177.165.232.266a6.261,6.261,0,0,1,.378.785,6.149,6.149,0,0,1,.344,1.934c.032.825.051,1.65.075,2.475.018.623.047,1.245.05,1.868a9.661,9.661,0,0,1-.1,1.612c-.1.605-.148,1.219-.232,1.827-.043.308-.1.615-.176.918a.67.67,0,0,1-.247.446c-.022.014-.051.042-.05.062.014.255-.219.386-.294.595a1.107,1.107,0,0,1-.474.555,6.575,6.575,0,0,1-1.4.692,4.314,4.314,0,0,1-1.516.167c-.42-.009-.84-.023-1.282-.035a1.881,1.881,0,0,0-.021.209q.009,1.239.022,2.477c0,.2.035.4.021.6q-.073,1.084-.173,2.166a2.236,2.236,0,0,1-.13.428l-.219-.049c-.017.039-.038.064-.038.089a3.273,3.273,0,0,1-.368,1.051.152.152,0,0,1-.221.091.176.176,0,0,0-.252.109c-.028.181-.145.183-.272.2a.461.461,0,0,0-.106.047l-.075-.2-.161.252c-.094,0-.212,0-.329,0s-.237-.012-.306-.138c-.01-.018-.064-.011-.1-.016-.018-.072.05-.162-.09-.263l.1.258m2.049-21.122c.021.205.037.385.058.564.065.553.156,1.1.193,1.66.05.749.057,1.5.087,2.252.031.8.071,1.593.1,2.389.019.528.021,1.056.033,1.585q.02.85.046,1.7c.006.19.024.38.037.588a8.375,8.375,0,0,0,1.307.111c.018-.129.039-.245.05-.362.031-.319.06-.638.085-.958.048-.62.1-1.24.134-1.862.022-.477.007-.955.008-1.432,0-1.185.016-2.369,0-3.553a11.019,11.019,0,0,0-.113-1.393,1.081,1.081,0,0,0-.508-.787,4.541,4.541,0,0,0-1.519-.5m6.141,2.631h-.021v.163h.021Z" transform="translate(-162.26 -195.647)" fill="#161615"/>
    <path id="Path_6" data-name="Path 6" d="M177.342,290.64c.032-.9.035-1.745.1-2.586a30.153,30.153,0,0,1,.555-3.916c.1-.457.187-.917.315-1.366a7.389,7.389,0,0,1,1.147-2.539,2.423,2.423,0,0,1,1.214-.9,4.5,4.5,0,0,0,.5-.188.736.736,0,0,1,.481-.044c.192.044.264.007.273-.182a1.975,1.975,0,0,1,.616-1.194,1.373,1.373,0,0,1,.4-.288,3.5,3.5,0,0,1,.6-.327,8,8,0,0,1,1.4-.359,5.3,5.3,0,0,1,1.306.093c.109.014.217.032.326.047a2.379,2.379,0,0,1,1.426.787,5.673,5.673,0,0,1,.884,1.187,3.829,3.829,0,0,1,.378,1.052c.168.8.329,1.6.418,2.409a9.229,9.229,0,0,1,.148,1.8c-.03.354.025.714.023,1.071,0,.531-.024,1.063-.038,1.594-.009.33-.009.661-.032.99-.031.438-.08.875-.121,1.312-.06.647-.107,1.3-.184,1.94a12.95,12.95,0,0,1-.456,2.085,13.128,13.128,0,0,1-.991,2.528,13.285,13.285,0,0,1-.942,1.489c-.106.147-.2.3-.312.446a3.446,3.446,0,0,1-1.164.855,3.938,3.938,0,0,1-1.173.353,10.588,10.588,0,0,1-2.822.071,2.638,2.638,0,0,1-.576-.163,4.425,4.425,0,0,1-1.783-1.094,3.905,3.905,0,0,1-.856-1.3,17.006,17.006,0,0,1-.863-3.039,12.188,12.188,0,0,1-.188-1.8c-.018-.292,0-.587,0-.826M185.06,279.7a3.64,3.64,0,0,1-.413.092c-.488.047-.977.086-1.465.127-.374.031-.443.041-.561.435a9.482,9.482,0,0,0-.254,1.1c-.081.468-.115.944-.2,1.411a11.691,11.691,0,0,0-.157,1.581c-.01.238-.021.477-.038.714-.044.61-.1,1.218-.134,1.828-.025.458-.029.917-.029,1.376,0,.366.021.731.028,1.1.012.578.006,1.156.032,1.733a14.226,14.226,0,0,0,.532,2.969c.1.362.244.71.363,1.066a.394.394,0,0,0,.309.277c.265.057.534.1.831.157.207-.383.418-.736.593-1.105a7.01,7.01,0,0,0,.34-.9,14.356,14.356,0,0,0,.406-1.427c.133-.654.237-1.315.311-1.979q.152-1.365.236-2.737c.04-.668.041-1.339.031-2.009-.012-.806-.024-1.615-.093-2.417a16.367,16.367,0,0,0-.471-2.729c-.055-.21-.124-.416-.2-.66" transform="translate(-127.033 -198.234)" fill="#161615"/>
    <path id="Path_7" data-name="Path 7" d="M333.874,192.991a1.592,1.592,0,0,1-1.136.27.226.226,0,0,0-.1-.006,1.257,1.257,0,0,1-.829-.176,1.53,1.53,0,0,1-.85-1.293,10.394,10.394,0,0,1-.112-2.218c.014-.8,0-1.6.005-2.4,0-.173,0-.346,0-.543l-1.7-.23c0,1.876.1,3.743-.069,5.609a1.244,1.244,0,0,1-.153.039.221.221,0,0,0-.214.212c-.021.144-.043.287-.066.444-.125,0-.252-.032-.281.136,0,.024-.13.027-.214.042-.034.088.035.267-.174.258-.014,0-.04.057-.046.091-.023.122-.1.134-.216.12-.033-.07-.073-.142-.1-.218a.881.881,0,0,0-.1-.239l-.059.546c-.083.015-.145.024-.206.037-.16.034-.314-.136-.456-.051-.161.1-.3-.01-.447-.006-.085,0-.273-.018-.252-.193-.1,0-.211.033-.281-.009-.086-.052-.134-.167-.193-.249-.083-.015-.186,0-.236-.049a1.129,1.129,0,0,1-.26-.329,3.427,3.427,0,0,1-.243-1.389c-.038-.842-.072-1.685-.088-2.528-.01-.494.027-.989.028-1.484,0-1.331,0-2.662,0-3.994,0-.551.011-1.1.015-1.653,0-.33-.006-.66.007-.99.031-.834.047-1.67.113-2.5a16.853,16.853,0,0,1,.38-2.8c.027-.107.056-.213.091-.317.061-.187.106-.342-.09-.512a.664.664,0,0,1-.11-.469c.006-.153.142-.252.268-.349a3.038,3.038,0,0,1,1.514-.5c.425-.058.851-.123,1.279-.142a7.188,7.188,0,0,1,1.01.058c.629.061,1.244.2,1.864.315.67.119,1.313.319,1.965.5a.439.439,0,0,1,.308.209.424.424,0,0,0,.168.13.464.464,0,0,1,.274.317.251.251,0,0,0,.137.148.48.48,0,0,1,.275.35c.105.426.2.854.286,1.285.06.314.093.633.127.951.047.444.1.888.121,1.334.062,1.108.119,2.217.162,3.326.026.681.021,1.363.037,2.045.009.366.04.732.049,1.1.007.3-.006.6-.009.9,0,.458-.026.917,0,1.374a25.591,25.591,0,0,1-.106,2.636,13.006,13.006,0,0,1-.215,1.6,4.937,4.937,0,0,1-.153.527c-.007.026-.01.064-.028.076-.254.164-.331.454-.492.682a1.213,1.213,0,0,1-.2.18l.047-.167-.226.159Zm.743-2.059c.021-.015.059-.029.061-.046.025-.195.045-.391.066-.586l-.058-.006c-.022.214-.043.429-.062.645-.018.115-.037.229-.056.344l.069,0q-.01-.177-.02-.354m-6.228-15.8c.223,2.879.443,5.7.663,8.533a8.349,8.349,0,0,0,1.839.052c.029-2.7-.112-5.356-.331-8.029l-2.171-.555m6.449,9.429v-.566a.633.633,0,0,0,0,.566m-.2-5.123-.048.026c.035.05.091.1.1.15a1.191,1.191,0,0,1-.01.245c0,.061,0,.123,0,.184.083-.352.066-.488-.041-.6m.1,10.256.042.007a.6.6,0,0,0,.016-.088.636.636,0,0,0-.011-.092l-.029,0c-.006.056-.012.113-.017.169m.015-8.944h.02v-.15h-.02Zm-6.3-1.789.054.006-.014-.164-.04,0Zm.161,1.468c-.027.052-.045.073-.047.1a.188.188,0,0,0,.024.069l.031-.009c0-.041,0-.082-.008-.155m6.056-1.444h-.019v.139h.019Z" transform="translate(-232.66 -123.899)" fill="#161615"/>
    <path id="Path_8" data-name="Path 8" d="M452.76,271.8c-.087.069-.187.085-.243.2-.049.1-.218.155-.34.218a1.553,1.553,0,0,1-1.042.1,3.365,3.365,0,0,0-.617-.087c-.8-.009-1.593-.047-2.39-.059a6.961,6.961,0,0,0-.9.054.546.546,0,0,0-.279.152,2.07,2.07,0,0,0-.648,1.272c-.065.478-.132.957-.167,1.437-.037.508-.034,1.019-.052,1.528-.031.824-.073,1.647-.1,2.471-.034,1.257-.056,2.514-.08,3.771q-.026,1.368-.041,2.737c0,.164.037.328.037.492,0,.219-.026.439-.028.658a26.6,26.6,0,0,0,.206,4.417c.088.559.222,1.111.337,1.675a5.808,5.808,0,0,0,.59,0,11.307,11.307,0,0,0,1.725-.285c.573-.152,1.156-.262,1.735-.39.372-.083.743-.169,1.116-.25a1.775,1.775,0,0,1,1.075.062.941.941,0,0,0,.262.033.265.265,0,0,1,.266.246l-.152.139c.034.022.056.049.075.047.071-.006.142-.022.238-.039-.021.137.048.186.169.163-.079.262-.076.275.142.4a2.251,2.251,0,0,0,.217.107c.151.07.17.2.03.286a2.824,2.824,0,0,1-.35.156c.141.151.032.3-.005.444-.022.083-.152.154-.248.2a.4.4,0,0,0-.274.281l.136.04c-.017.022-.028.05-.047.06-.346.168-.689.343-1.041.5a13.352,13.352,0,0,1-1.268.513c-.5.158-1.007.268-1.514.388-.284.068-.572.126-.86.168a8.788,8.788,0,0,1-.979.1,12.03,12.03,0,0,1-1.255.118c-.521-.038-1.047-.026-1.566-.079a2.113,2.113,0,0,1-.718-.239,3.4,3.4,0,0,1-1.858-2.192c-.168-.627-.3-1.264-.425-1.9a20.786,20.786,0,0,1-.284-4.138c.007-.56,0-1.121.007-1.681q.034-1.652.085-3.3c.019-.66.041-1.32.075-1.979.041-.8.1-1.591.141-2.388.034-.65.044-1.3.081-1.952a13.313,13.313,0,0,1,.415-2.934,6.261,6.261,0,0,1,1.464-2.611,4.944,4.944,0,0,1,.99-.734,5.058,5.058,0,0,1,1.44-.564,3.032,3.032,0,0,1,.787-.041c.228,0,.456.025.682.049.364.039.73.066,1.089.134.682.129,1.36.279,2.038.427.2.045.405.106.606.165a2.823,2.823,0,0,1,1.086.767,1.189,1.189,0,0,1,.426.674" transform="translate(-316.151 -193.109)" fill="#161615"/>
    <path id="Path_9" data-name="Path 9" d="M245.883,200.514c.07-1.042.111-2.088.219-3.127a17.849,17.849,0,0,1,.484-2.674,12.34,12.34,0,0,1,1.524-3.309,4.35,4.35,0,0,0,.253-.426,1.314,1.314,0,0,1,.852-.637c.2-.073.419-.115.629-.173a.186.186,0,0,0,.092-.053,1.953,1.953,0,0,1,.868-.56,4.732,4.732,0,0,1,1.166-.426,5.871,5.871,0,0,1,1.141.051c.073.007.144.035.217.036a1.512,1.512,0,0,1,1.048.589,1.4,1.4,0,0,0,.379.359.24.24,0,0,1,.08.074,5,5,0,0,1,1.015,1.837c.2.84.306,1.694.446,2.544a14.567,14.567,0,0,1,.146,2.6c-.014.979-.062,1.956-.153,2.932a23.206,23.206,0,0,1-.573,3.321,12.835,12.835,0,0,1-.579,1.655,6.218,6.218,0,0,1-.531,1.019c-.271.433-.578.843-.867,1.265a2.18,2.18,0,0,1-1.042.816c-.306.118-.617.226-.926.336a.333.333,0,0,1-.108.017,6.178,6.178,0,0,1-1.806-.1,3.967,3.967,0,0,1-1.032-.491,5.867,5.867,0,0,1-1.666-1.844,4.667,4.667,0,0,1-.578-1.3c-.173-.617-.35-1.235-.477-1.862a15.18,15.18,0,0,1-.221-2.465m5.991-8.16a1.518,1.518,0,0,1-.724.494c-.114.028-.124.118-.14.211-.127.73-.27,1.457-.38,2.19q-.151,1.006-.242,2.021c-.054.61-.06,1.225-.1,1.837a17.331,17.331,0,0,0,.036,2.68,13.217,13.217,0,0,0,.608,2.757,7.117,7.117,0,0,0,.339.769,2.732,2.732,0,0,0,.534-.924,10.245,10.245,0,0,0,.54-1.868,14.755,14.755,0,0,0,.248-2.591c.028-1.007-.015-2.016-.039-3.023-.011-.439-.037-.878-.082-1.315a24.034,24.034,0,0,0-.422-2.511c-.047-.221-.106-.439-.176-.727m4.209,7.439.071.008v-.2l-.051,0-.02.2m0,.376.035,0v-.2h-.035Z" transform="translate(-176.135 -135.47)" fill="#161615"/>
    <path id="Path_10" data-name="Path 10" d="M147.509,294.771l-.343.189.363.027-.144.173c.026.02.039.037.053.039a.631.631,0,0,0,.218.019c.2-.05.321.07.453.195-.1.168-.305.1-.449.18a.584.584,0,0,0,.454.256l-.16.048.692.108c-.026.063-.031.122-.058.136-.1.048-.206.073-.3.12a1.366,1.366,0,0,0-.186.13l.14.177-.272.15.247.126-.6.359.252.084c0,.026,0,.037,0,.043-.092.137-.3.1-.37.184a.4.4,0,0,1-.338.178.063.063,0,0,0-.027.007,3.449,3.449,0,0,1-1.535.125c-.512,0-1.024-.016-1.536-.012a8.465,8.465,0,0,1-2.264-.242c-.6-.161-1.194-.353-1.786-.545a11.635,11.635,0,0,1-1.186-.433,3.86,3.86,0,0,1-1.7-1.472,2.264,2.264,0,0,1-.342-.92c-.028-.215-.117-.421-.161-.635a9.394,9.394,0,0,1-.151-2.157c.01-.349,0-.7,0-1.047.015-.859.015-1.72.06-2.578a41.512,41.512,0,0,1,.431-4.236c.148-.949.305-1.9.465-2.845.1-.578.192-1.156.315-1.728a6.217,6.217,0,0,1,.92-2.222,3.7,3.7,0,0,1,1.31-1.186c.209-.112.419-.226.637-.32a10.693,10.693,0,0,1,2.039-.67,9.637,9.637,0,0,1,1.97-.085h.286c.08-.371.165-.734.234-1.1a1.676,1.676,0,0,1,.565-.98,3.883,3.883,0,0,1,.591-.377.231.231,0,0,1,.127,0c.024,0,.063.033.066.029.153-.2.423-.054.571-.194l.4.185a.3.3,0,0,1,.387-.09c.06.028.148-.01.213.013.089.031.223.078.239.142a.24.24,0,0,0,.187.192.376.376,0,0,1,.238.3c.035.2.146.253.314.271.015,0,.028.021.054.042a4.427,4.427,0,0,0-.109,1.161c-.03.5-.089,1-.135,1.505-.024.252-.016.507-.024.758a2.136,2.136,0,0,1-.186.974.469.469,0,0,0-.053.211,1.186,1.186,0,0,1-.415.85,2.254,2.254,0,0,1-.481.272l-.038-.263-.123.265c-.275-.036-.569.064-.83-.1a1.227,1.227,0,0,0-.566-.166c-.089-.009-.166-.127-.285-.226-.031,0-.14.039-.2,0s-.047-.154-.07-.242a.821.821,0,0,0-.143-.051.478.478,0,0,1-.436-.455,1.131,1.131,0,0,0-.139-.515.676.676,0,0,1-.046-.25c-.294.028-.576.045-.855.084a3.836,3.836,0,0,0-1.6.61,1.28,1.28,0,0,0-.538.8c-.09.373-.164.751-.226,1.13-.115.7-.224,1.409-.32,2.116-.055.408-.079.819-.117,1.229-.056.629-.121,1.257-.166,1.887-.058.811-.116,1.622-.144,2.434-.031.926-.037,1.852-.041,2.778s-.02,1.853.023,2.778a6.65,6.65,0,0,0,.263,1.26.308.308,0,0,0,.195.165c.781.227,1.561.462,2.35.654a4.392,4.392,0,0,0,.925.048c.345.008.69.009,1.035.007a2.785,2.785,0,0,0,.462-.025,2.081,2.081,0,0,1,.652.062c.213.029.437.025.655.045a.963.963,0,0,1,.147.057M141.073,281.1l.06.008.065-.527-.046-.006-.078.525" transform="translate(-97.751 -194.749)" fill="#161615"/>
    <path id="Path_11" data-name="Path 11" d="M269.349,276.233c0-.079-.009-.158-.015-.254.02-.036.165.031.117-.105a.125.125,0,0,1,0-.067c.181-.032.267-.214.444-.265s.3-.165.461-.228A3.684,3.684,0,0,1,272,275.1c.564.042,1.124.146,1.684.236.234.038.463.107.693.165a.653.653,0,0,1,.374.26,3.11,3.11,0,0,0,.351.342c0,.034-.007.113-.013.2a1.812,1.812,0,0,0,.249.127c.09.03.2.051.176.164-.01.049-.12.078-.191.106-.1.06-.009.244-.177.276,0,0,.035.12.013.161-.094.171-.161.355-.367.452a3.719,3.719,0,0,1-1.836.361c-.381-.023-.764-.029-1.162-.044.016.222.032.437.046.652.048.757.108,1.513.14,2.27.018.429-.019.86-.015,1.29.006.559.029,1.118.043,1.678,0,.164,0,.328,0,.492-.014.881-.03,1.762-.042,2.643,0,.346,0,.692,0,1.052.247,0,.5-.007.75,0,.421.014.843.021,1.261.065a.974.974,0,0,1,.653.315.359.359,0,0,0,.13.1.262.262,0,0,1,.163.353l.346.081c-.077.135-.146.263-.223.385-.038.06-.1.1-.136.165a1.284,1.284,0,0,1-.716.6c-.2.074-.387.167-.586.236a3.09,3.09,0,0,1-1.212.129c-.135-.008-.271,0-.422,0,0,.4,0,.768,0,1.141,0,.329,0,.658.029.986a7.438,7.438,0,0,0,.127.9c.05.242.145.473.205.713a.272.272,0,0,0,.264.227c.545.057,1.09.111,1.634.173a5.174,5.174,0,0,1,1.119.2c.214.074.445.1.662.168a2.916,2.916,0,0,1,1,.708,5.877,5.877,0,0,1,.538.617l.266.308c-.116.139-.251.239-.294.368a.513.513,0,0,1-.33.309l.033.09a3.734,3.734,0,0,1-1.922.485c-.519.014-1.036.1-1.555.126a9.327,9.327,0,0,1-1.48.039c-.382-.043-.768-.048-1.153-.061a3.311,3.311,0,0,1-1.318-.358,4.047,4.047,0,0,1-2.188-2.6,10.335,10.335,0,0,1-.416-3.42c.028-.835.031-1.67.071-2.5.051-1.052.13-2.1.194-3.154.03-.494.046-.989.078-1.483.042-.658.094-1.316.14-1.973.022-.311.04-.622.063-.932a17.67,17.67,0,0,1,.36-2.693c.1-.417.267-.818.4-1.225.044-.13.085-.262.136-.389a.961.961,0,0,1,.565-.6c.05-.018.1-.04.141-.058.031-.108-.154-.2,0-.294l.172.109.02-.041-.2-.06" transform="translate(-191.4 -197.053)" fill="#161615"/>
    <path id="Path_12" data-name="Path 12" d="M297.2,192.467c.2,0,.388,0,.577,0a10.37,10.37,0,0,1,2.1.2,2.7,2.7,0,0,1,.955.314,2.944,2.944,0,0,1,.308.257,1.071,1.071,0,0,1,.19.142c.073.1.3.064.242.28-.006.023.113.076.185.123-.157.12.148.215-.013.33.14.115.431.089.329.4l-.165-.018-.295.252.131.184-.224-.013c-.01.014-.021.025-.02.028.055.088.111.176.182.288h-.232c-.062.129-.062.129-.343.237.039.027.062.045.088.059s.064.034.1.053a.758.758,0,0,1-.2.159.768.768,0,0,1-.267-.02l.082.2c-.143.023-.273.037-.4.067s-.245.117-.361.107a7.534,7.534,0,0,1-1.244-.044.425.425,0,0,0-.164-.01,8.255,8.255,0,0,0-1.736.225,4.212,4.212,0,0,0-.667.31,2.075,2.075,0,0,1-1.483.281,2,2,0,0,0-.436.009.791.791,0,0,1-.515-.154,2.91,2.91,0,0,0-.418-.2l-.056-.317a.875.875,0,0,0-.164,0c-.156.032-.3.056-.3-.177,0-.019-.032-.049-.054-.054-.212-.046-.193-.21-.194-.367a1.168,1.168,0,0,0-.18-.613.336.336,0,0,1-.02-.156c.019-1.018.037-2.036.061-3.054q.018-.811.051-1.623c.035-.852.079-1.7.114-2.555.022-.539.035-1.079.05-1.618.02-.724.033-1.448.06-2.172.03-.8.062-1.594.11-2.39.072-1.181.116-2.362.116-3.545,0-.808-.031-1.617,0-2.424a13.51,13.51,0,0,1,.145-2.409,5.1,5.1,0,0,0,.016-1.092.456.456,0,0,1,.2-.393,2.023,2.023,0,0,1,.606-.263,1.554,1.554,0,0,1,.856.012.788.788,0,0,1,.269.121,3.381,3.381,0,0,1,.431.351.379.379,0,0,1,.1.243,3.394,3.394,0,0,0,.246,1.14,6.914,6.914,0,0,1,.361,1.489c.068.543.169,1.083.244,1.626.09.652.189,1.3.245,1.959.095,1.1.141,2.212.242,3.315.077.839.076,1.678.094,2.517.012.513.05,1.025.068,1.538.018.539.044,1.078.034,1.617-.02,1.09-.065,2.18-.092,3.27-.012.491-.01.983,0,1.474a4.417,4.417,0,0,0,.066.509m-1.672-20.421.072-.009c-.02-.061-.037-.123-.062-.182,0-.008-.044,0-.089,0l.079.193" transform="translate(-209.535 -122.658)" fill="#161615"/>
    <path id="Path_13" data-name="Path 13" d="M224.866,172.363l.105.291.358.087-.1.28c.13.145.331.038.488.09,0,.035.013.065.007.068-.265.149-.294.464-.472.677a1.217,1.217,0,0,1-.286.275,2.435,2.435,0,0,0-.815.805c-.351.568-.723,1.129-1.014,1.727a17.185,17.185,0,0,0-1.145,3.15,35.844,35.844,0,0,0-.853,4.169c-.063.445-.127.891-.162,1.339-.069.892-.137,1.785-.169,2.679-.027.751-.006,1.5,0,2.255a5.33,5.33,0,0,0,.415,2.192,4.444,4.444,0,0,0,.416.709,1.4,1.4,0,0,0,.657.434c.329.136.682.217,1,.371a3.74,3.74,0,0,0,1.144.244,2.479,2.479,0,0,1,.367.119l.247-.1.019.026-.184.155.238.269c-.092.122-.181.244-.273.363a2.823,2.823,0,0,1-.855.633,5.854,5.854,0,0,1-1.659.642,2.181,2.181,0,0,1-.518.06,13.643,13.643,0,0,1-1.372-.043,3.518,3.518,0,0,1-1.815-.78c-.243-.192-.461-.415-.691-.624a4.612,4.612,0,0,1-.858-1.172,7.556,7.556,0,0,1-.821-2.062,7.038,7.038,0,0,1-.176-1.582c0-.954-.018-1.909.025-2.861.039-.85.129-1.7.238-2.543.1-.808.248-1.612.4-2.413.084-.44.218-.871.336-1.3a21.467,21.467,0,0,1,2-5.021,8.821,8.821,0,0,1,1.424-1.976,6.5,6.5,0,0,1,1.617-1.076,5.889,5.889,0,0,1,1.524-.584,1.519,1.519,0,0,1,.379-.049c.27.014.539.051.835.081m-3.827,10.986c-.156.087-.082.214-.06.333-.165.1-.06.252-.062.383l-.091.239.034.011.056-.252c.02-.128.041-.257.059-.388.02-.109.04-.219.057-.332v-.278l-.038,0q.022.14.044.28m-.241,1.4h.015v-.183H220.8Zm-.036.3h-.024v.125a.089.089,0,0,0,.023,0c0-.04,0-.081,0-.121" transform="translate(-154.79 -123.411)" fill="#161615"/>
    <path id="Path_14" data-name="Path 14" d="M192.387,200.006c-.014-.146-.034-.267-.037-.389a.667.667,0,0,0-.213-.539,2.013,2.013,0,0,1-.5-.843,7.022,7.022,0,0,1-.272-1.506c-.072-.443-.11-.891-.155-1.337-.032-.318-.051-.638-.075-.957-.13-1.749-.123-3.5-.126-5.253,0-2.038.013-4.076.028-6.114.007-.807.034-1.615.054-2.422.015-.633.011-1.267.053-1.9q.1-1.479.255-2.955c.047-.454.142-.9.234-1.35a.931.931,0,0,1,.569-.741,5.079,5.079,0,0,1,.843-.317.314.314,0,0,1,.357.109.6.6,0,0,1,.714.09,2.023,2.023,0,0,0,.2.142c.044.031.1.048.133.089a2.221,2.221,0,0,1,.542,1.157c.049.767.13,1.533.17,2.3.037.712.042,1.426.058,2.139q.033,1.469.062,2.938c.018.88.031,1.76.05,2.64.015.741.045,1.482.049,2.222,0,.613-.028,1.227-.03,1.84,0,.668.03,1.337.012,2-.023.841-.082,1.681-.124,2.521-.027.531-.035,1.064-.083,1.594-.066.729-.165,1.456-.242,2.184a2.931,2.931,0,0,1-.25.888,1.765,1.765,0,0,1-.425.664,1.043,1.043,0,0,0-.292.8,4.265,4.265,0,0,1-.485.4c-.177.108-.392.049-.611.059-.062-.229-.231-.243-.461-.158m2.562-5.625.064.014v-.933l-.011,0q-.026.461-.053.921" transform="translate(-136.828 -124.193)" fill="#161615"/>
    <path id="Path_15" data-name="Path 15" d="M422.776,292.157l-.037.233a.731.731,0,0,1-.605-.091.379.379,0,0,0-.15-.047c-.034-.008-.08.006-.1-.012a3.217,3.217,0,0,1-.612-.488,2.2,2.2,0,0,1-.325-.687,7.8,7.8,0,0,1-.285-2.3c-.02-.816-.077-1.631-.083-2.447-.014-1.763-.01-3.525,0-5.288,0-.807.033-1.614.046-2.421.007-.4-.008-.807.007-1.21.019-.521.058-1.041.087-1.562.027-.494.041-.99.077-1.484a25.661,25.661,0,0,1,.344-2.888c.044-.233.094-.465.134-.7a.581.581,0,0,1,.37-.463c.208-.089.414-.182.622-.269a1.553,1.553,0,0,1,.751-.048,1.128,1.128,0,0,1,.267.025.856.856,0,0,1,.248.149.827.827,0,0,1,.152.178,1.49,1.49,0,0,0,.4.387c.044.03.062.111.073.173.093.476.2.95.266,1.43.083.641.129,1.286.19,1.929.047.5.1,1,.138,1.5.049.683.086,1.366.125,2.05.062,1.08.131,2.159.177,3.239.043,1,.057,1.993.087,2.99.039,1.274.086,2.549.119,3.823a14.093,14.093,0,0,1-.1,2.167,4.4,4.4,0,0,1-.343,1.234.291.291,0,0,1-.03.076,3.211,3.211,0,0,0-.509.7.074.074,0,0,1-.039.037c-.274.073-.5.289-.8.291-.113,0-.227.047-.34.049-.225,0-.226,0-.308-.26m1.258-21.009.036-.013-.044-.157-.053.018.061.151" transform="translate(-301.267 -193.384)" fill="#161615"/>
    <path id="Path_16" data-name="Path 16" d="M270.794,257.261l.04-.2.383-.027.241-.269.33.043c-.009-.144.06-.186.194-.135l.321.126c.022-.019.062-.082.1-.081a3.61,3.61,0,0,1,.567.045c.2.036.283.208.382.365s.2.359.433.4a.255.255,0,0,1,.138.128c.159.289.443.5.518.844a.349.349,0,0,0,.094.165,4.206,4.206,0,0,1,.592,1.029,1.418,1.418,0,0,1,.253.688,1.229,1.229,0,0,1-.014.147l-.067.042-.125-.224c-.175.117.058.148,0,.249l-.14.025v.489l-.25-.068c.014.125.026.235.041.375-.1.02-.216.039-.33.069-.029.008-.048.049-.074.073s-.073.087-.113.091c-.274.028-.536.18-.825.069-.057-.022-.138.025-.208.026a1.662,1.662,0,0,1-.908-.246,3.944,3.944,0,0,1-1.006-.842,8.963,8.963,0,0,1-1.01-1.3,1.142,1.142,0,0,1-.228-.663.422.422,0,0,0-.052-.155,1.4,1.4,0,0,1-.068-.656.075.075,0,0,1,.005-.027,2.309,2.309,0,0,1,.382-.533c.163.059.225-.08.314-.172l.092.112" transform="translate(-193.403 -183.847)" fill="#161615"/>
    <path id="Path_17" data-name="Path 17" d="M346.293,351.761l0-.015.191-.137c-.027.138-.084.178-.188.152" transform="translate(-248.061 -251.871)" fill="#161615"/>
    <path id="Path_18" data-name="Path 18" d="M181.09,242.3v-.139l.036-.005q.009.073.018.146h-.054" transform="translate(-129.722 -173.464)" fill="#fff"/>
    <path id="Path_19" data-name="Path 19" d="M409.894,317.555v-.13h.014v.131h-.014" transform="translate(-293.623 -227.383)" fill="#fff"/>
    <path id="Path_20" data-name="Path 20" d="M319.221,297.645l-.081-.306c.142.052.142.052.081.306" transform="translate(-228.612 -212.995)" fill="#fff"/>
    <path id="Path_21" data-name="Path 21" d="M323.3,317.752l-.259.065a.2.2,0,0,1,.235-.138l.023.073" transform="translate(-231.409 -227.563)" fill="#fff"/>
    <path id="Path_22" data-name="Path 22" d="M319.209,295.07c-.007-.058-.013-.117-.019-.175l.052,0v.177l-.032,0" transform="translate(-228.648 -211.241)" fill="#fff"/>
    <path id="Path_23" data-name="Path 23" d="M313.267,352.745c-.1-.118-.1-.118-.006-.259,0,.116,0,.191,0,.265l.006-.006" transform="translate(-224.35 -252.499)" fill="#fff"/>
    <path id="Path_24" data-name="Path 24" d="M319.266,288.787l-.014-.232.041,0v.234l-.027,0" transform="translate(-228.692 -206.7)" fill="#fff"/>
    <path id="Path_25" data-name="Path 25" d="M319.472,299.207l-.029.187-.043-.007c.009-.063.018-.126.026-.189l.047.009" transform="translate(-228.798 -214.327)" fill="#fff"/>
    <path id="Path_26" data-name="Path 26" d="M318.752,351.632l-.164.128-.028-.052.191-.076h0" transform="translate(-228.197 -251.887)" fill="#fff"/>
    <path id="Path_27" data-name="Path 27" d="M381.077,221.006l.017-.369h.024V221l-.041.007" transform="translate(-272.98 -158.051)" fill="#fff"/>
    <path id="Path_28" data-name="Path 28" d="M381.362,218.128v.293h-.027v-.283l.027-.011" transform="translate(-273.164 -156.253)" fill="#fff"/>
    <path id="Path_29" data-name="Path 29" d="M411.894,192.208l-.01-.218.058,0c0,.075.007.15.01.224l-.058,0" transform="translate(-295.048 -137.528)" fill="#fff"/>
    <path id="Path_30" data-name="Path 30" d="M399.315,250.543l-.136.069-.026-.055.139-.064.023.05" transform="translate(-285.928 -179.438)" fill="#fff"/>
    <path id="Path_31" data-name="Path 31" d="M383.886,188.41c0,.062-.009.125-.014.187l-.052,0c.005-.062.01-.124.016-.186l.051,0" transform="translate(-274.945 -134.963)" fill="#fff"/>
    <path id="Path_32" data-name="Path 32" d="M381.547,216.027v.127h-.019l-.008-.124.027,0" transform="translate(-273.297 -154.748)" fill="#fff"/>
    <path id="Path_33" data-name="Path 33" d="M233.586,356.638v-.263l.042-.015.1.187-.15.09h0" transform="translate(-167.324 -255.274)" fill="#fff"/>
    <path id="Path_34" data-name="Path 34" d="M264.753,292.475v.163h-.021v-.163h.021" transform="translate(-189.638 -209.511)" fill="#fff"/>
    <path id="Path_35" data-name="Path 35" d="M235.691,357.009l-.1-.258c.14.1.072.191.09.263l.005,0" transform="translate(-168.766 -255.554)" fill="#fff"/>
    <path id="Path_36" data-name="Path 36" d="M360.038,212.409a.634.634,0,0,1,0-.565Z" transform="translate(-257.861 -151.752)" fill="#fff"/>
    <path id="Path_37" data-name="Path 37" d="M359.394,195.779c.107.117.125.252.041.6,0-.061,0-.123,0-.184a1.194,1.194,0,0,0,.011-.245c-.01-.054-.066-.1-.1-.149l.048-.026" transform="translate(-257.413 -140.244)" fill="#fff"/>
    <path id="Path_38" data-name="Path 38" d="M359.434,234.707l.064-.644.058.006c-.021.2-.041.391-.066.586,0,.018-.04.031-.061.047Z" transform="translate(-257.473 -167.668)" fill="#fff"/>
    <path id="Path_39" data-name="Path 39" d="M359.3,236.314q.01.177.02.354l-.069,0q.028-.172.055-.344l-.006-.006" transform="translate(-257.348 -169.281)" fill="#fff"/>
    <path id="Path_40" data-name="Path 40" d="M359.869,231.5c.006-.056.012-.113.018-.169l.03,0a.6.6,0,0,1,.011.092.572.572,0,0,1-.016.088l-.042-.007" transform="translate(-257.788 -165.705)" fill="#fff"/>
    <path id="Path_41" data-name="Path 41" d="M359.922,200.023v-.149h.02v.15h-.02" transform="translate(-257.826 -143.177)" fill="#fff"/>
    <path id="Path_42" data-name="Path 42" d="M337.7,193.7v-.156l.04,0c0,.054.009.109.014.164l-.054-.006" transform="translate(-241.909 -138.639)" fill="#fff"/>
    <path id="Path_43" data-name="Path 43" d="M356.338,243.17h-.187l.226-.159-.047.167.008-.008" transform="translate(-255.124 -174.078)" fill="#fff"/>
    <path id="Path_44" data-name="Path 44" d="M338.154,199.27c0,.073.006.114.008.155l-.031.009a.194.194,0,0,1-.024-.069c0-.022.02-.044.047-.1" transform="translate(-242.199 -142.745)" fill="#fff"/>
    <path id="Path_45" data-name="Path 45" d="M359.574,194.179v.139h-.019v-.139h.019" transform="translate(-257.563 -139.097)" fill="#fff"/>
    <path id="Path_46" data-name="Path 46" d="M281.84,226.257l.019-.2.052,0v.2Z" transform="translate(-201.893 -161.934)" fill="#fff"/>
    <path id="Path_47" data-name="Path 47" d="M281.83,227.592V227.4h.035v.2l-.035,0" transform="translate(-201.885 -162.893)" fill="#fff"/>
    <path id="Path_48" data-name="Path 48" d="M152.724,303.1l.078-.525.046.006-.065.527-.06-.008" transform="translate(-109.402 -216.745)" fill="#fff"/>
    <path id="Path_49" data-name="Path 49" d="M274.8,279.114l.2.06-.02.041-.172-.109-.007.008" transform="translate(-196.847 -199.934)" fill="#fff"/>
    <path id="Path_50" data-name="Path 50" d="M302.943,173.612l-.079-.193c.046,0,.086-.007.089,0,.025.059.042.121.062.182l-.072.009" transform="translate(-216.953 -124.225)" fill="#fff"/>
    <path id="Path_51" data-name="Path 51" d="M232.7,215.785V215.6h.015v.183H232.7" transform="translate(-166.69 -154.444)" fill="#fff"/>
    <path id="Path_52" data-name="Path 52" d="M232.89,213.819l-.056.251-.034-.012.091-.239h0" transform="translate(-166.763 -153.167)" fill="#fff"/>
    <path id="Path_53" data-name="Path 53" d="M233.1,212.46l-.061.385h0c0-.13-.1-.279.062-.383v0" transform="translate(-166.915 -152.193)" fill="#fff"/>
    <path id="Path_54" data-name="Path 54" d="M232.511,217.314c0,.04,0,.081,0,.121a.092.092,0,0,1-.023,0v-.125h.024" transform="translate(-166.539 -155.67)" fill="#fff"/>
    <path id="Path_55" data-name="Path 55" d="M233.3,211.29c-.02.11-.04.219-.059.33l0,0c-.022-.118-.1-.246.06-.332Z" transform="translate(-167.056 -151.355)" fill="#fff"/>
    <path id="Path_56" data-name="Path 56" d="M233.439,210.583l-.044-.28.038,0c0,.093,0,.185,0,.28l0,0" transform="translate(-167.19 -150.645)" fill="#fff"/>
    <path id="Path_57" data-name="Path 57" d="M204.9,245.109q.026-.461.053-.921l.011,0v.934l-.064-.014" transform="translate(-146.774 -174.921)" fill="#fff"/>
    <path id="Path_58" data-name="Path 58" d="M432.642,273.717l-.061-.151.053-.018.044.157-.036.013" transform="translate(-309.874 -195.953)" fill="#fff"/>
    <rect id="Rectangle_1" data-name="Rectangle 1" width="0.873" height="5.556" transform="translate(44.696 37.004)" fill="#171716"/>
    <path id="Path_59" data-name="Path 59" d="M175.914,131.983v4.024h-.786v-5.556h1.1l.9,3.326v-3.326h.778v5.556H177Z" transform="translate(-125.451 -93.447)" fill="#171716"/>
    <path id="Path_60" data-name="Path 60" d="M200.209,130.227c.85,0,1.286.508,1.286,1.4v.174h-.825v-.23c0-.4-.159-.548-.437-.548s-.437.151-.437.548c0,1.143,1.707,1.357,1.707,2.945,0,.889-.444,1.4-1.3,1.4s-1.3-.508-1.3-1.4v-.341h.825v.4c0,.4.175.54.453.54s.452-.143.452-.54c0-1.143-1.707-1.357-1.707-2.945,0-.889.437-1.4,1.286-1.4" transform="translate(-142.479 -93.287)" fill="#171716"/>
    <path id="Path_61" data-name="Path 61" d="M221.216,130.451h2.7v.794H223v4.762h-.873v-4.762h-.913Z" transform="translate(-158.465 -93.447)" fill="#171716"/>
    <rect id="Rectangle_2" data-name="Rectangle 2" width="0.873" height="5.556" transform="translate(69.311 37.004)" fill="#171716"/>
    <path id="Path_62" data-name="Path 62" d="M261.035,130.451h2.7v.794h-.913v4.762h-.873v-4.762h-.913Z" transform="translate(-186.989 -93.447)" fill="#171716"/>
    <path id="Path_63" data-name="Path 63" d="M284.9,130.451v4.286c0,.4.174.54.452.54s.452-.143.452-.54v-4.286h.825v4.231c0,.889-.444,1.4-1.3,1.4s-1.3-.508-1.3-1.4v-4.231Z" transform="translate(-203.456 -93.447)" fill="#171716"/>
    <path id="Path_64" data-name="Path 64" d="M306.676,130.451h2.7v.794h-.913v4.762h-.873v-4.762h-.913Z" transform="translate(-219.683 -93.447)" fill="#171716"/>
    <path id="Path_65" data-name="Path 65" d="M158.772,387.151v-4.369h-.949V382.5h2.2v.279h-.943v4.369Z" transform="translate(-113.054 -274.002)" fill="#171716"/>
    <path id="Path_66" data-name="Path 66" d="M181.125,384.654v.279h-1.268v1.939h1.527v.279h-1.832V382.5h1.832v.279h-1.527v1.872Z" transform="translate(-128.62 -274.001)" fill="#171716"/>
    <path id="Path_67" data-name="Path 67" d="M201.315,382.5c.71,0,1,.391,1,1.049v.4a1.017,1.017,0,0,0,0,1.912v.724a1.041,1.041,0,0,0,.113.558H202.1a1.088,1.088,0,0,1-.1-.558v-.73c0-.618-.339-.79-.87-.79h-.484v2.078h-.305V382.5Zm-.173,2.291c.544,0,.863-.153.863-.777v-.439c0-.5-.193-.8-.7-.8h-.657v2.012Z" transform="translate(-143.515 -274.002)" fill="#171716"/>
    <path id="Path_68" data-name="Path 68" d="M222.928,382.5c.71,0,1,.391,1,1.049v.4a1.017,1.017,0,0,0,0,1.912v.724a1.041,1.041,0,0,0,.113.558h-.319a1.089,1.089,0,0,1-.1-.558v-.73c0-.618-.338-.79-.87-.79h-.484v2.078h-.305V382.5Zm-.173,2.291c.544,0,.863-.153.863-.777v-.439c0-.5-.192-.8-.7-.8h-.657v2.012Z" transform="translate(-158.997 -274.002)" fill="#171716"/>
    <path id="Path_69" data-name="Path 69" d="M243.848,386.105l-.232,1.029h-.279l1.016-4.654h.445l1.036,4.654h-.305l-.232-1.029Zm.046-.265h1.355l-.684-3.008Z" transform="translate(-174.311 -273.985)" fill="#171716"/>
    <path id="Path_70" data-name="Path 70" d="M268.212,383.525v.1h-.292v-.119c0-.491-.186-.863-.691-.863s-.69.365-.69.856c0,1.129,1.68,1.149,1.68,2.43,0,.67-.292,1.162-1,1.162s-1-.491-1-1.162v-.239h.292v.259c0,.5.193.856.7.856s.7-.359.7-.856c0-1.116-1.68-1.136-1.68-2.43,0-.7.306-1.149.989-1.155.7,0,.989.491.989,1.162" transform="translate(-190.698 -273.901)" fill="#171716"/>
    <path id="Path_71" data-name="Path 71" d="M289.45,383.525v.1h-.292v-.119c0-.491-.186-.863-.691-.863s-.69.365-.69.856c0,1.129,1.68,1.149,1.68,2.43,0,.67-.292,1.162-1,1.162s-1-.491-1-1.162v-.239h.292v.259c0,.5.193.856.7.856s.7-.359.7-.856c0-1.116-1.68-1.136-1.68-2.43,0-.7.306-1.149.989-1.155.7,0,.989.491.989,1.162" transform="translate(-205.912 -273.901)" fill="#171716"/>
    <path id="Path_72" data-name="Path 72" d="M309.107,386.105l-.232,1.029H308.6l1.016-4.654h.445l1.036,4.654h-.306l-.232-1.029Zm.047-.265h1.354l-.684-3.008Z" transform="translate(-221.059 -273.985)" fill="#171716"/>
    <path id="Path_73" data-name="Path 73" d="M134.247,6.6a2.337,2.337,0,0,0,.158-.759,2.829,2.829,0,0,0-.208-.99,4.027,4.027,0,0,0-1.174-1.875,7.964,7.964,0,0,0-1.385-.991,14.143,14.143,0,0,0-1.855-.862A15.287,15.287,0,0,0,126.7.248a18.479,18.479,0,0,0-1.985-.189,36.944,36.944,0,0,0-3.936-.012c-.471.02-.939.08-1.408.1-.745.024-1.484.106-2.223.187-.871.1-1.739.212-2.608.326-.45.06-.9.129-1.346.205-.481.081-.959.175-1.438.264-.543.1-1.088.188-1.627.3-.889.193-1.773.409-2.661.606q-1.69.375-3.344.887c-1.1.34-2.211.669-3.315,1.01S98.6,4.61,97.5,4.971c-.819.269-1.625.576-2.439.861-1.6.559-3.205,1.087-4.791,1.677-1.479.55-2.936,1.158-4.4,1.749-2.2.888-4.417,1.747-6.594,2.7-1.371.6-2.738,1.21-4.12,1.783-1.609.667-3.19,1.392-4.775,2.113-1.629.741-3.25,1.5-4.882,2.234q-1.6.721-3.174,1.506-1.857.922-3.716,1.841c-1.2.589-2.4,1.158-3.592,1.762-1.072.544-2.126,1.122-3.188,1.686-1.709.908-3.424,1.806-5.125,2.728-.858.464-1.693.969-2.536,1.459-.52.3-1.028.627-1.556.914-.9.49-1.774,1.021-2.658,1.538-1.194.7-2.351,1.452-3.513,2.2-.71.458-1.442.882-2.15,1.343-1.24.808-2.47,1.63-3.7,2.449-1.069.712-2.139,1.423-3.2,2.145-.6.411-1.195.844-1.792,1.265-1.049.741-2.073,1.514-3.13,2.245-.921.637-1.793,1.343-2.683,2.025q-1.723,1.319-3.439,2.647c-1.04.806-2.011,1.695-3,2.56-.77.674-1.542,1.348-2.287,2.05-.543.511-1.028,1.085-1.568,1.6a29.088,29.088,0,0,0-2.561,2.8,34.318,34.318,0,0,0-3.1,4.487A29.652,29.652,0,0,0,1.551,66.3a6.413,6.413,0,0,0,2.522,6.839,20.34,20.34,0,0,0,13,3.258c1.365-.053,2.725-.18,4.081-.334.662-.075,1.326-.153,1.979-.281.893-.175,1.776-.4,2.665-.6.838-.188,1.672-.4,2.517-.549.816-.146,1.619-.34,2.422-.541.3-.074.3-.09.142-.39-.058-.112-.069-.233-.241-.3a1.519,1.519,0,0,0-.887-.115c-.555.128-7.008.853-8.5.895-.957.027-1.915.032-2.872.056a36.466,36.466,0,0,1-5.15-.278,11.64,11.64,0,0,1-3.681-1.052A19.6,19.6,0,0,1,6.69,71.242a3.675,3.675,0,0,1-1.317-1.476C3.431,65.4,11.817,57.217,12.548,56.478q1.183-1.2,2.367-2.388c.126-.127.258-.247.393-.365.8-.693,1.6-1.373,2.389-2.077,1.2-1.075,2.472-2.059,3.737-3.053.408-.321.864-.584,1.255-.924.688-.6,1.449-1.1,2.175-1.642.451-.339.93-.652,1.371-1,1.018-.812,2.087-1.551,3.156-2.29,1.283-.886,2.584-1.747,3.879-2.617.985-.662,1.962-1.335,2.959-1.979q2.356-1.521,4.734-3.006c.949-.6,1.911-1.168,2.869-1.749,1.333-.808,2.714-1.533,4.038-2.357.951-.592,1.95-1.1,2.948-1.611,1.07-.548,2.12-1.134,3.184-1.7.747-.395,1.5-.776,2.253-1.161q1.736-.888,3.474-1.77c.608-.308,1.229-.593,1.833-.909,1.455-.76,2.93-1.481,4.411-2.188.895-.427,1.813-.8,2.69-1.27a1.716,1.716,0,0,1,.177-.081c1.042-.414,2.044-.916,3.049-1.412.233-.115.477-.207.717-.309.1-.045.212-.082.313-.134.621-.32,1.258-.6,1.9-.885.847-.373,1.685-.768,2.534-1.136,1.476-.639,2.957-1.265,4.435-1.9q2.018-.864,4.036-1.729c.657-.281,1.314-.56,1.975-.832.526-.216,1.058-.416,1.585-.63.437-.177.869-.367,1.3-.546.615-.254,1.226-.521,1.85-.751,1.143-.42,2.3-.812,3.441-1.225S98.223,8,99.363,7.62c.986-.328,1.95-.72,2.963-.97.6-.147,1.178-.369,1.766-.557.944-.3,1.886-.61,2.831-.908,1.208-.381,2.445-.652,3.676-.94,1.265-.3,2.534-.578,3.819-.788,1.572-.257,3.144-.509,4.729-.682a41.755,41.755,0,0,1,6.859-.222,7.128,7.128,0,0,1,1.585.239c.469.134.93.294,1.4.416a5.866,5.866,0,0,1,1.219.487,3.226,3.226,0,0,1,.914.722,1.064,1.064,0,0,1,.268,1.126,10.126,10.126,0,0,1-1.364,2.736c-.743.987-1.517,1.947-2.331,2.876s-1.582,1.852-2.371,2.78a1.637,1.637,0,0,0-.2.275.549.549,0,0,0-.1.368c.022.11.149.115.214.185l.035.035a.916.916,0,0,0,1.291.14c.187-.128.36-.277.534-.424.732-.618,1.468-1.232,2.19-1.862.416-.363.814-.746,1.211-1.13a18.366,18.366,0,0,0,2.827-3.2,11.07,11.07,0,0,0,.918-1.718" transform="translate(-0.965 0)" fill="#040506"/>
    <path id="Path_74" data-name="Path 74" d="M29.506,117.027a9.119,9.119,0,0,1,.31,2.51,16.308,16.308,0,0,1-.336,3.211,19.14,19.14,0,0,1-.619,2.246c-.32,1.012-.7,2-1.1,2.982a9.556,9.556,0,0,1-2.765,3.773,17.7,17.7,0,0,1-3.17,2.129c-.515.266-1.023.545-1.549.789a12.852,12.852,0,0,1-2.77.926c-.989.207-1.978.412-2.971.6a11.647,11.647,0,0,1-3.908.1,10.107,10.107,0,0,1-2.477-.717,19.824,19.824,0,0,1-1.917-.941,11.387,11.387,0,0,1-3.759-3.495,12.239,12.239,0,0,1-1.6-3.135,13.528,13.528,0,0,1-.429-1.684c-.135-.683-.275-1.365-.346-2.059a17.349,17.349,0,0,1,0-3.676A15.26,15.26,0,0,1,1.106,116.7a10.626,10.626,0,0,1,2.1-3.412,12.836,12.836,0,0,1,2.828-2.327c.614-.364,1.236-.709,1.874-1.026a8.857,8.857,0,0,1,3.084-.9,2.3,2.3,0,0,0,.892-.277,4.507,4.507,0,0,1,1.743-.539,15.262,15.262,0,0,1,2.579-.146,15.838,15.838,0,0,1,3.7.71,24.665,24.665,0,0,1,2.885,1.073,14.919,14.919,0,0,1,3.446,2.064,12.516,12.516,0,0,1,2.138,2.212,3.079,3.079,0,0,1,.523.9c-.266.044-.28.057-.177.239a1.012,1.012,0,0,1,.109.267c.1.394.2.786.307,1.178.05.184.133.339.367.31m-8.779,2.311c-.108.132-.175.229-.256.311a1.111,1.111,0,0,1-1.3.342.243.243,0,0,0-.094-.028A.11.11,0,0,0,19,120a.1.1,0,0,0,.005.091,1.361,1.361,0,0,0,.158.191,2.269,2.269,0,0,1,.593,1.071.768.768,0,0,1-.106.741.24.24,0,0,0-.008.353.535.535,0,0,1,.156.358c-.009.822-.1.955-.856,1.157a.63.63,0,0,1-.2.013.711.711,0,0,1-.731-.663,1.867,1.867,0,0,1-.031-.3.536.536,0,0,0-.255-.458c-.068-.047-.131-.1-.2-.147a1.817,1.817,0,0,1-.825-1.022.23.23,0,0,0-.253-.186,1.866,1.866,0,0,1-.2,0,.188.188,0,0,0-.212.162c-.061.207-.111.418-.189.618a.375.375,0,0,0,.066.452.7.7,0,0,1,.209.591c-.062.276-.051.56-.129.828a1.086,1.086,0,0,0-.026.484,1.57,1.57,0,0,1-.253,1.042.552.552,0,0,1-.542.285,1.137,1.137,0,0,1-.569-.154c-.112-.071-.23-.132-.342-.2A2.559,2.559,0,0,0,13,124.893a1.148,1.148,0,0,1-.6-.211.956.956,0,0,1-.317-1.218,2.234,2.234,0,0,1,.745-.853.383.383,0,0,0,.18-.424,1.663,1.663,0,0,0-.039-.245,1.676,1.676,0,0,1,.03-.98c.026-.1.058-.19.083-.287A.34.34,0,0,0,13,120.31a1.989,1.989,0,0,1-.371-.586c-.256-.52-.51-1.041-.768-1.56a2.276,2.276,0,0,1-.169-1.265.516.516,0,0,1,.157-.3.847.847,0,0,1,.435-.222c.481-.127.959-.26,1.44-.385a.887.887,0,0,0,.493-.313c.123-.155.265-.3.4-.444a.973.973,0,0,1,.513-.287,1.469,1.469,0,0,1,1.2.145.314.314,0,0,0,.276.079,8.372,8.372,0,0,1,1.275-.2c.475-.084.441-.01.487-.553.04-.478.148-.95.193-1.427a10.344,10.344,0,0,1,.15-1.033c.052-.264.055-.263-.193-.347-.047-.016-.093-.037-.141-.049a16.585,16.585,0,0,0-4.468-.629,10.238,10.238,0,0,1-2.229-.172.762.762,0,0,0-.44.014,11.375,11.375,0,0,0-1.109.437,14.353,14.353,0,0,0-2.448,1.613,9.663,9.663,0,0,0-1.323,1.279.581.581,0,0,0-.144.548c.047.21.085.424.152.628a2.527,2.527,0,0,0,.4,1.059.207.207,0,0,1,.027.14,2.332,2.332,0,0,0,.1.684,2.4,2.4,0,0,1,.052.639.773.773,0,0,1-.353.625,2.163,2.163,0,0,1-1.088.45,1.624,1.624,0,0,0-.76.215,4.512,4.512,0,0,0-1.025.861.775.775,0,0,0-.193.444,17.33,17.33,0,0,0-.07,2.087c0,.132.026.264.037.4a.4.4,0,0,0,.155.3,3.492,3.492,0,0,0,1.189.7,6.688,6.688,0,0,1,1.111.425,10.976,10.976,0,0,1,1.135.614,4.217,4.217,0,0,1,.878.728.828.828,0,0,1,.2.342,6.058,6.058,0,0,1,.339,2.676,10.812,10.812,0,0,1-.322,1.553,8.237,8.237,0,0,0-.275,1.311.332.332,0,0,0,.192.362c.088.047.173.1.261.145a11.727,11.727,0,0,0,1.832.771,6.989,6.989,0,0,0,1.8.378.124.124,0,0,0,.144-.149.6.6,0,0,0-.019-.1,15.5,15.5,0,0,1-.356-1.7,3.966,3.966,0,0,1-.064-1.236,4.915,4.915,0,0,1,1.032-2.391,1.526,1.526,0,0,1,1.581-.611c.425.075.851.126,1.28.168a3.071,3.071,0,0,0,.838-.036c.473-.083.949-.163,1.427-.207a1.489,1.489,0,0,1,1.461.661c.1.149.2.3.309.472a6.686,6.686,0,0,0,.731-.81.352.352,0,0,0,.045-.089,1.453,1.453,0,0,1,.767-.923c.144-.061.239-.221.38-.315a5.08,5.08,0,0,1,1.312-.58,5.2,5.2,0,0,0,1.2-.587,6.474,6.474,0,0,0,1.592-1.417.91.91,0,0,1,.29-.269.347.347,0,0,0,.194-.273c.06-.393.119-.787.173-1.182a.134.134,0,0,0-.14-.165,1.2,1.2,0,0,1-.757-.326,6.022,6.022,0,0,1-.944-.806.282.282,0,0,0-.262-.108,2.091,2.091,0,0,0-.247.022,6.5,6.5,0,0,1-1.734.061,1.381,1.381,0,0,1-.863-.338c-.215-.181-.395-.4-.62-.621m5.624.3a8.035,8.035,0,0,0-.069-.96,18.131,18.131,0,0,0-.413-1.842,2.89,2.89,0,0,0-.479-1.03c-.2-.266-.4-.531-.62-.778a10.555,10.555,0,0,0-4.613-2.828c-.18-.061-.237-.033-.277.157a7.227,7.227,0,0,0-.219,1.911,1.023,1.023,0,0,1-.066.585.533.533,0,0,0-.067.516c.028.062-.013.125-.05.183a.5.5,0,0,1-.5.265,2.361,2.361,0,0,0-.542-.047c-.574.08-1.149.167-1.714.293a.807.807,0,0,1-.967-.273.555.555,0,0,0-.5-.172c-.18,0-.247.14-.327.267-.071.112-.15.219-.226.328a1.408,1.408,0,0,1-.914.632c-.325.064-.643.163-.969.217a.392.392,0,0,0-.292.486.858.858,0,0,0,.193.4,1.236,1.236,0,0,1,.212.273,2.32,2.32,0,0,0,.637.751,4.465,4.465,0,0,0,.494.332.692.692,0,0,1,.3.9,3.653,3.653,0,0,1-.241.545,1.252,1.252,0,0,0-.041,1.148c.055.139.115.276.159.419a.536.536,0,0,1-.323.687c-.122.049-.257.067-.382.109a1.143,1.143,0,0,0-.694.6c-.107.219-.053.363.209.455a1.1,1.1,0,0,0,.442.056,1.529,1.529,0,0,1,.8.216c.134.065.265.137.4.208.424.231.466.212.482-.256a5.8,5.8,0,0,1,.1-1.287.27.27,0,0,0-.1-.265.808.808,0,0,1-.136-.965c.092-.23.15-.473.228-.709a2.819,2.819,0,0,1,.154-.418.545.545,0,0,1,.473-.322,3.313,3.313,0,0,1,1.267.168.3.3,0,0,1,.214.249,1.364,1.364,0,0,0,.6.932,3.8,3.8,0,0,0,.321.236.847.847,0,0,1,.367.566c.043.226.1.451.162.673a.141.141,0,0,0,.15.107.187.187,0,0,0,.178-.145.362.362,0,0,0-.064-.329,2.006,2.006,0,0,1-.158-.191.543.543,0,0,1,.037-.76.484.484,0,0,0,.1-.366,1.53,1.53,0,0,0-.458-.862c-.094-.114-.221-.2-.314-.318a.431.431,0,0,1-.067-.508,1.441,1.441,0,0,1,.711-.6.682.682,0,0,1,.662.091.193.193,0,0,0,.3-.065,3.3,3.3,0,0,0,.212-.335,1.622,1.622,0,0,1,.376-.458.654.654,0,0,1,.787-.084,1.86,1.86,0,0,1,.8.646.5.5,0,0,0,.59.251c.309-.055.623-.09.928-.159a1.469,1.469,0,0,1,1.022.068,2.139,2.139,0,0,1,1.016.762.636.636,0,0,0,.576.332c.074,0,.137-.033.14-.107.008-.2,0-.4,0-.579m-.927,5.536-.075-.063c-.195.152-.388.306-.585.455a5.25,5.25,0,0,1-2.061.943c-.274.06-.555.092-.832.139a.552.552,0,0,0-.428.3,3.7,3.7,0,0,1-.4.566,5.735,5.735,0,0,1-1.571,1.2.334.334,0,0,1-.5-.141c-.09-.139-.174-.283-.254-.428a.846.846,0,0,0-.859-.469,11.329,11.329,0,0,0-1.182.151,5.071,5.071,0,0,1-2.265-.1,3.142,3.142,0,0,0-.688-.092c-.148-.009-.336.006-.4.148a4.116,4.116,0,0,0-.416.779c-.1.434-.182.873-.286,1.305a6.916,6.916,0,0,0-.091,1.579.536.536,0,0,0,.031.2,2.529,2.529,0,0,1,.134.68,1.281,1.281,0,0,0,.235.593.558.558,0,0,0,.592.277c.147-.026.3-.031.444-.059.585-.112,1.17-.232,1.755-.344a17.53,17.53,0,0,0,2.636-.714c.405-.145.793-.337,1.191-.5a.317.317,0,0,0,.218-.3,2,2,0,0,0-.061-.837c-.081-.234-.162-.469-.247-.7-.094-.259-.085-.357.119-.523a1.576,1.576,0,0,1,1.006-.349.469.469,0,0,1,.356.147,11.014,11.014,0,0,1,.984.966c.121.158.171.161.323.036.358-.295.708-.6,1.061-.9a3.849,3.849,0,0,0,.792-.949,14.087,14.087,0,0,0,.736-1.521c.215-.481.4-.975.6-1.463m-21.692-.847a.678.678,0,0,0,.02.429c.079.39.182.775.254,1.166a7.838,7.838,0,0,0,.621,1.935,11.207,11.207,0,0,0,1.665,2.584c.053.062.1.134.217.1a6.5,6.5,0,0,1,.442-1.769c.108-.33.221-.66.3-1a1.437,1.437,0,0,0-.306-1.3,8.28,8.28,0,0,1-.542-.711,1.49,1.49,0,0,0-.9-.655,5.415,5.415,0,0,1-1.408-.618.7.7,0,0,0-.371-.156m-.011-5.262a.644.644,0,0,0,.358-.207,2.34,2.34,0,0,1,.871-.453,3.719,3.719,0,0,1,.622-.164,1.083,1.083,0,0,0,.437-.218.326.326,0,0,0,.158-.336,6.606,6.606,0,0,0-.228-1.165c-.106-.347-.221-.692-.338-1.036-.028-.083-.019-.2-.174-.227a10.228,10.228,0,0,0-1.706,3.806M20.27,129.539a3.989,3.989,0,0,0,.188.742c.049.236.067.477.1.715a.624.624,0,0,0,.33-.126c.614-.346.509-.255.109-.742a1.771,1.771,0,0,0-.726-.588" transform="translate(0 -77.409)" fill="#040506"/>
    <path id="Path_75" data-name="Path 75" d="M101.891,134.629c-.234.03-.317-.125-.367-.31-.106-.391-.211-.783-.307-1.177a1.014,1.014,0,0,0-.109-.267c-.1-.183-.089-.2.177-.24a3.011,3.011,0,0,1,.173.348,8.931,8.931,0,0,1,.433,1.646" transform="translate(-72.385 -95.011)" fill="#060707"/>
    <path id="Path_76" data-name="Path 76" d="M29.43,126.1c.225.225.4.44.62.621a1.378,1.378,0,0,0,.863.338,6.486,6.486,0,0,0,1.734-.06,2.094,2.094,0,0,1,.247-.022.282.282,0,0,1,.262.108,6.022,6.022,0,0,0,.944.806,1.2,1.2,0,0,0,.757.326.134.134,0,0,1,.14.165c-.054.395-.113.789-.173,1.182a.347.347,0,0,1-.194.273.908.908,0,0,0-.289.269,6.474,6.474,0,0,1-1.592,1.417,5.2,5.2,0,0,1-1.2.587,5.09,5.09,0,0,0-1.312.581c-.141.094-.236.254-.38.315a1.454,1.454,0,0,0-.767.923.338.338,0,0,1-.045.088,6.666,6.666,0,0,1-.731.81c-.111-.171-.207-.323-.309-.472a1.489,1.489,0,0,0-1.461-.661c-.478.044-.954.123-1.427.206a3.06,3.06,0,0,1-.838.036c-.429-.042-.855-.093-1.28-.168a1.526,1.526,0,0,0-1.581.611,4.911,4.911,0,0,0-1.032,2.391A3.951,3.951,0,0,0,20.445,138a15.5,15.5,0,0,0,.356,1.7.628.628,0,0,1,.019.1.124.124,0,0,1-.145.149,6.987,6.987,0,0,1-1.8-.379,11.675,11.675,0,0,1-1.832-.771c-.088-.047-.173-.1-.261-.145a.332.332,0,0,1-.192-.363,8.275,8.275,0,0,1,.275-1.311,10.81,10.81,0,0,0,.322-1.553,6.061,6.061,0,0,0-.339-2.676.832.832,0,0,0-.2-.342,4.227,4.227,0,0,0-.878-.728,11.086,11.086,0,0,0-1.135-.614,6.7,6.7,0,0,0-1.111-.425,3.494,3.494,0,0,1-1.189-.7.4.4,0,0,1-.155-.3c-.011-.132-.037-.264-.037-.4a17.329,17.329,0,0,1,.07-2.087.775.775,0,0,1,.193-.444,4.512,4.512,0,0,1,1.025-.861,1.625,1.625,0,0,1,.76-.215,2.162,2.162,0,0,0,1.088-.45.774.774,0,0,0,.353-.625,2.429,2.429,0,0,0-.052-.639,2.319,2.319,0,0,1-.1-.684.207.207,0,0,0-.027-.14,2.528,2.528,0,0,1-.4-1.059c-.067-.2-.105-.418-.152-.628a.581.581,0,0,1,.144-.547,9.665,9.665,0,0,1,1.323-1.279,14.38,14.38,0,0,1,2.448-1.612,11.377,11.377,0,0,1,1.109-.437.762.762,0,0,1,.44-.014,10.221,10.221,0,0,0,2.229.171,16.6,16.6,0,0,1,4.468.629c.048.013.094.033.141.049.248.084.245.083.193.347a10.34,10.34,0,0,0-.15,1.033c-.045.478-.153.95-.193,1.428-.046.542-.012.468-.487.553a8.372,8.372,0,0,0-1.275.2.314.314,0,0,1-.276-.079,1.467,1.467,0,0,0-1.2-.145.975.975,0,0,0-.513.286c-.133.148-.275.289-.4.445a.885.885,0,0,1-.493.313c-.481.125-.96.258-1.44.385a.846.846,0,0,0-.435.222.518.518,0,0,0-.157.3,2.277,2.277,0,0,0,.169,1.265c.258.519.512,1.04.768,1.56a1.984,1.984,0,0,0,.37.586.34.34,0,0,1,.085.365c-.025.1-.057.191-.083.287a1.676,1.676,0,0,0-.03.98,1.666,1.666,0,0,1,.039.245.382.382,0,0,1-.18.424,2.231,2.231,0,0,0-.745.853.955.955,0,0,0,.316,1.218,1.146,1.146,0,0,0,.6.211,2.563,2.563,0,0,1,1.263.411c.112.071.231.132.342.2a1.143,1.143,0,0,0,.569.154.553.553,0,0,0,.542-.285,1.57,1.57,0,0,0,.253-1.042,1.086,1.086,0,0,1,.026-.485c.078-.268.068-.552.129-.828a.7.7,0,0,0-.209-.591.375.375,0,0,1-.066-.451c.078-.2.128-.411.189-.618a.188.188,0,0,1,.212-.162,1.866,1.866,0,0,0,.2,0,.23.23,0,0,1,.253.186,1.817,1.817,0,0,0,.825,1.022c.07.045.132.1.2.147a.536.536,0,0,1,.255.458,1.9,1.9,0,0,0,.031.3.711.711,0,0,0,.731.662.623.623,0,0,0,.2-.013c.759-.2.847-.334.856-1.157a.534.534,0,0,0-.156-.358.24.24,0,0,1,.008-.353.767.767,0,0,0,.106-.741,2.267,2.267,0,0,0-.593-1.071,1.349,1.349,0,0,1-.158-.191.1.1,0,0,1-.005-.09.11.11,0,0,1,.082-.038.237.237,0,0,1,.094.028,1.111,1.111,0,0,0,1.3-.342c.082-.081.148-.178.256-.311m-11.518-1.74a3.848,3.848,0,0,0,.285,1.309,1.313,1.313,0,0,0,.164.247.586.586,0,0,0,.911.038c.068-.069.1-.175.2-.205.239-.066.271-.271.3-.469.025-.179.045-.359.073-.538.059-.375.189-.73.266-1.1a1.77,1.77,0,0,0-.3-1.271.454.454,0,0,0-.454-.251,1.159,1.159,0,0,0-.877.845,1.779,1.779,0,0,1-.375.854.791.791,0,0,0-.2.539" transform="translate(-8.703 -84.169)" fill="#00aae8"/>
    <path id="Path_77" data-name="Path 77" d="M57.983,130.025c0,.181,0,.38,0,.579,0,.075-.066.108-.14.107a.637.637,0,0,1-.576-.332,2.137,2.137,0,0,0-1.016-.762,1.468,1.468,0,0,0-1.022-.068c-.306.069-.62.1-.929.159a.5.5,0,0,1-.59-.251,1.86,1.86,0,0,0-.8-.646.654.654,0,0,0-.787.084,1.628,1.628,0,0,0-.376.458,3.252,3.252,0,0,1-.212.335.193.193,0,0,1-.3.065.682.682,0,0,0-.662-.091,1.44,1.44,0,0,0-.711.6.43.43,0,0,0,.067.508c.093.116.219.2.314.318a1.53,1.53,0,0,1,.458.862.486.486,0,0,1-.1.366.543.543,0,0,0-.037.76,2.01,2.01,0,0,0,.158.191.362.362,0,0,1,.064.329.187.187,0,0,1-.178.145.141.141,0,0,1-.15-.107c-.062-.222-.119-.446-.162-.673a.846.846,0,0,0-.368-.566,3.835,3.835,0,0,1-.32-.236,1.364,1.364,0,0,1-.6-.932.294.294,0,0,0-.214-.249,3.307,3.307,0,0,0-1.267-.168.544.544,0,0,0-.473.322,2.871,2.871,0,0,0-.154.418c-.077.236-.136.479-.227.709a.808.808,0,0,0,.136.965.269.269,0,0,1,.1.265,5.831,5.831,0,0,0-.1,1.287c-.016.467-.058.487-.482.256-.131-.071-.262-.143-.4-.208a1.53,1.53,0,0,0-.8-.216,1.1,1.1,0,0,1-.442-.056c-.262-.092-.315-.236-.209-.455a1.142,1.142,0,0,1,.694-.6c.125-.043.26-.06.382-.109a.536.536,0,0,0,.323-.687c-.044-.142-.1-.28-.159-.419a1.253,1.253,0,0,1,.041-1.148,3.7,3.7,0,0,0,.241-.545.692.692,0,0,0-.3-.9,4.435,4.435,0,0,1-.494-.332,2.32,2.32,0,0,1-.637-.751,1.237,1.237,0,0,0-.212-.273.855.855,0,0,1-.193-.4.392.392,0,0,1,.292-.486c.326-.054.644-.154.97-.217a1.409,1.409,0,0,0,.914-.632c.075-.109.155-.216.226-.328.08-.127.147-.265.327-.267a.556.556,0,0,1,.5.172.807.807,0,0,0,.967.273c.565-.126,1.14-.213,1.714-.293a2.381,2.381,0,0,1,.542.047.5.5,0,0,0,.5-.265c.037-.058.078-.121.05-.183a.533.533,0,0,1,.067-.516,1.023,1.023,0,0,0,.066-.585,7.227,7.227,0,0,1,.219-1.911c.039-.19.1-.218.277-.157a10.555,10.555,0,0,1,4.613,2.828c.221.246.422.512.62.778a2.886,2.886,0,0,1,.479,1.03,18.127,18.127,0,0,1,.413,1.842,8.09,8.09,0,0,1,.069.96" transform="translate(-31.631 -87.793)" fill="#f17c2f"/>
    <path id="Path_78" data-name="Path 78" d="M57.043,168.235c-.2.488-.382.983-.6,1.463a14.06,14.06,0,0,1-.736,1.521,3.848,3.848,0,0,1-.792.949c-.353.3-.7.608-1.061.9-.152.125-.2.121-.323-.036a11.022,11.022,0,0,0-.984-.966.469.469,0,0,0-.356-.147,1.575,1.575,0,0,0-1.006.349c-.2.167-.213.265-.119.523.085.233.166.468.247.7a2,2,0,0,1,.061.837.317.317,0,0,1-.218.3c-.4.165-.786.356-1.191.5a17.571,17.571,0,0,1-2.636.713c-.585.112-1.17.232-1.756.344-.146.028-.3.033-.443.059a.558.558,0,0,1-.592-.277,1.278,1.278,0,0,1-.235-.593,2.54,2.54,0,0,0-.134-.681.535.535,0,0,1-.031-.2,6.915,6.915,0,0,1,.091-1.579c.1-.432.186-.871.286-1.3a4.108,4.108,0,0,1,.416-.779c.065-.142.253-.158.4-.149a3.141,3.141,0,0,1,.688.093,5.075,5.075,0,0,0,2.265.1,11.383,11.383,0,0,1,1.182-.151.846.846,0,0,1,.859.469c.079.146.163.289.254.428a.334.334,0,0,0,.5.141,5.739,5.739,0,0,0,1.571-1.2,3.69,3.69,0,0,0,.4-.566.552.552,0,0,1,.428-.3c.277-.047.558-.078.832-.139a5.253,5.253,0,0,0,2.061-.943c.2-.149.39-.3.585-.455l.075.063" transform="translate(-31.619 -120.468)" fill="#f17c2f"/>
    <path id="Path_79" data-name="Path 79" d="M13.084,165.408a.7.7,0,0,1,.371.156,5.416,5.416,0,0,0,1.408.617,1.49,1.49,0,0,1,.9.655,8.327,8.327,0,0,0,.542.711,1.436,1.436,0,0,1,.306,1.3c-.084.337-.2.667-.3,1a6.486,6.486,0,0,0-.442,1.77c-.116.037-.164-.035-.217-.1a11.2,11.2,0,0,1-1.665-2.584A7.849,7.849,0,0,1,13.358,167c-.071-.391-.174-.776-.254-1.166a.679.679,0,0,1-.02-.429" transform="translate(-9.351 -118.488)" fill="#f17c2f"/>
    <path id="Path_80" data-name="Path 80" d="M13.119,137.244a10.228,10.228,0,0,1,1.707-3.806c.155.027.145.144.174.227.116.344.231.689.337,1.036a6.55,6.55,0,0,1,.228,1.165.325.325,0,0,1-.158.336,1.076,1.076,0,0,1-.437.218,3.75,3.75,0,0,0-.622.164,2.341,2.341,0,0,0-.871.453.643.643,0,0,1-.358.207" transform="translate(-9.398 -95.587)" fill="#f17c2f"/>
    <path id="Path_81" data-name="Path 81" d="M71.459,183.776a1.771,1.771,0,0,1,.726.588c.4.487.5.4-.109.742a.624.624,0,0,1-.33.126c-.031-.238-.05-.479-.1-.715a3.987,3.987,0,0,1-.188-.741" transform="translate(-51.189 -131.646)" fill="#00aae8"/>
    <path id="Path_82" data-name="Path 82" d="M32.464,136.012a.794.794,0,0,1,.2-.539,1.779,1.779,0,0,0,.375-.854,1.16,1.16,0,0,1,.877-.845.454.454,0,0,1,.454.251,1.771,1.771,0,0,1,.3,1.271c-.077.369-.207.724-.266,1.1-.028.179-.048.359-.073.538-.028.2-.059.4-.3.469-.108.03-.137.136-.2.205a.585.585,0,0,1-.911-.038,1.3,1.3,0,0,1-.164-.247,3.848,3.848,0,0,1-.285-1.309m1.487-.965a.777.777,0,0,0-.09-.507c-.039-.054-.089-.051-.113-.012a.963.963,0,0,0-.1.226,2.665,2.665,0,0,1-.421.892.874.874,0,0,0-.129.658,1.535,1.535,0,0,0,.07.339c.058.159.012.369.213.461a.866.866,0,0,0,.193-.442,14.061,14.061,0,0,1,.345-1.4.7.7,0,0,0,.029-.216" transform="translate(-23.255 -95.823)" fill="#060707"/>
    <path id="Path_83" data-name="Path 83" d="M35.531,136.89a.7.7,0,0,1-.03.216,14.062,14.062,0,0,0-.345,1.4.866.866,0,0,1-.193.442c-.2-.092-.154-.3-.213-.461a1.534,1.534,0,0,1-.07-.339.874.874,0,0,1,.129-.658,2.664,2.664,0,0,0,.421-.892.963.963,0,0,1,.1-.226c.024-.039.075-.041.113.012a.777.777,0,0,1,.09.507" transform="translate(-24.834 -97.667)" fill="#f17c2f"/>
    <path id="Path_84" data-name="Path 84" d="M344.4,71.918a16.349,16.349,0,0,1-3.176.087c-.668-.02-1.334-.1-2-.081a4.555,4.555,0,0,1-1.34-.236q-.793-.225-1.575-.49a12.422,12.422,0,0,1-2-.891,25.562,25.562,0,0,1-5.208-4.089,18.794,18.794,0,0,1-2.289-2.843,1.6,1.6,0,0,0-.224-.267,4.453,4.453,0,0,1-1.075-1.815c-.064-.2-.135-.4-.212-.6a2.731,2.731,0,0,1-.188-.734,10.636,10.636,0,0,0-.221-1.069,3.905,3.905,0,0,1-.081-.533c-.048-.782-.1-1.564-.127-2.347-.04-1.218-.038-2.437.023-3.654a12.078,12.078,0,0,1,.327-2,11.124,11.124,0,0,1,2.108-4.264,13.645,13.645,0,0,1,2.311-2.258,19.053,19.053,0,0,1,2.054-1.367,16.027,16.027,0,0,1,2.935-1.455,22.633,22.633,0,0,1,2.713-.831c.669-.159,1.349-.235,2.027-.332a17.728,17.728,0,0,1,2.015-.174,22.393,22.393,0,0,1,2.284.006,18.2,18.2,0,0,1,2.784.4,22.136,22.136,0,0,1,3.289,1.075c.014.014.027.035.044.042a13.161,13.161,0,0,1,2.52,1.47A15.4,15.4,0,0,1,354.665,45a17.04,17.04,0,0,1,1.871,2.643,17.638,17.638,0,0,1,1.878,4.715c.118.471.194.954.3,1.425a11.868,11.868,0,0,1,.247,1.914c.044.665,0,1.334.014,2a9.388,9.388,0,0,1-.3,2.521,14.776,14.776,0,0,1-1.036,2.681c-.18.372-.429.708-.633,1.069-.27.477-.6.918-.9,1.38a11.755,11.755,0,0,1-1.215,1.5,10.333,10.333,0,0,1-1.524,1.391c-.693.51-1.442.93-2.175,1.378-.42.257-.886.4-1.314.635a11.916,11.916,0,0,1-2.763,1.082,6.346,6.346,0,0,1-.943.261c-.6.056-1.175.248-1.771.321M341.74,42.674c-.58-.018-1,.018-1.423.034a13.027,13.027,0,0,0-3.009.444,17.6,17.6,0,0,0-1.973.682,13.532,13.532,0,0,0-2.15,1.092,13.242,13.242,0,0,0-2.53,2.007,8.177,8.177,0,0,0-1.6,2.573,10.652,10.652,0,0,0-.62,3.04c-.054.546-.023,1.093-.042,1.639a27.189,27.189,0,0,0,.065,3.111,3.811,3.811,0,0,1,.056.536,6.4,6.4,0,0,0,.131,1.345,11.875,11.875,0,0,0,.409,1.731,1.01,1.01,0,0,0,.254.43c.565.575,1.178,1.1,1.757,1.655.367.354.722.719,1.1,1.057.619.548,1.265,1.061,1.924,1.561a7.553,7.553,0,0,0,.821.6,4.583,4.583,0,0,1,.529.342,12.54,12.54,0,0,0,1.634.911,11.52,11.52,0,0,0,1.357.536,3.7,3.7,0,0,0,1.286.331c.249.006.5.015.748.029a14.683,14.683,0,0,0,1.932,0,13.765,13.765,0,0,0,2.143-.244,12.564,12.564,0,0,0,1.5-.378,26.869,26.869,0,0,0,3.217-1.507,7.965,7.965,0,0,0,1.947-1.463,14.165,14.165,0,0,0,2.576-3.447,7.458,7.458,0,0,0,.872-3.1,19.869,19.869,0,0,0-.01-2.382,16.171,16.171,0,0,0-.678-3.744,18.5,18.5,0,0,0-1.242-3.054,13.026,13.026,0,0,0-2.542-3.317,10.393,10.393,0,0,0-2.905-1.857,12.73,12.73,0,0,0-2.207-.785,13.583,13.583,0,0,0-2-.364,11.462,11.462,0,0,0-1.337-.046m16.975,15.812c-.144.739-.232,1.484-.412,2.213a4.6,4.6,0,0,0,.412-2.213M328.162,56.2c-.033.076-.066.116-.062.15a2.246,2.246,0,0,1-.016.716c-.014.074.009.159.1.166a.13.13,0,0,0,.134-.144,1.469,1.469,0,0,0-.157-.888m.1-.146c0-.207,0-.414,0-.621,0-.041,0-.09-.052-.1a.137.137,0,0,0-.086.028.07.07,0,0,0-.015.108c.037.048.108.093.053.158-.14.167,0,.288.1.423m-.047-1.425a.559.559,0,0,0-.142.449c0,.053.012.113.08.114s.111-.052.112-.123a.98.98,0,0,0-.049-.441m.212,4.148a.314.314,0,0,0-.091.294.077.077,0,0,0,.079.08c.089,0,.055-.061.047-.11-.012-.07-.019-.142-.035-.264m-.268-4.813c-.027.137-.067.251.076.338a.268.268,0,0,0-.076-.338m.2,4.413a.133.133,0,0,0,.028-.117c-.007-.052-.014-.114-.091-.082-.056.023-.031.071-.013.107s.029.08.076.092" transform="translate(-232.563 -28.402)" fill="#040506"/>
    <path id="Path_85" data-name="Path 85" d="M394.265,75.726c.6-.074,1.171-.265,1.771-.321a6.424,6.424,0,0,0,.943-.261,11.916,11.916,0,0,0,2.763-1.082c.428-.231.895-.379,1.314-.635.732-.448,1.482-.868,2.174-1.378a10.321,10.321,0,0,0,1.524-1.391,11.776,11.776,0,0,0,1.215-1.5c.3-.462.63-.9.9-1.38.2-.361.454-.7.633-1.069a14.772,14.772,0,0,0,1.036-2.681,9.391,9.391,0,0,0,.3-2.521c-.01-.667.031-1.337-.014-2a11.853,11.853,0,0,0-.247-1.914c-.11-.471-.185-.955-.3-1.426a17.64,17.64,0,0,0-1.878-4.715,17.056,17.056,0,0,0-1.871-2.643,15.417,15.417,0,0,0-2.548-2.329,13.172,13.172,0,0,0-2.52-1.471c-.018-.007-.03-.028-.044-.042a6.087,6.087,0,0,1,1.324.137c.219.038.434.1.65.149a4.315,4.315,0,0,1,1.83.982c.706.612,1.34,1.3,2.065,1.889a20.216,20.216,0,0,1,2.334,2.159,12.026,12.026,0,0,1,1.431,1.932,8.586,8.586,0,0,1,.857,1.836c.188.608.37,1.218.532,1.833.2.737.372,1.479.548,2.221a6.124,6.124,0,0,1,.152,1.863c-.036.507-.034,1.016-.049,1.524a8.917,8.917,0,0,1-.209,1.415,15.74,15.74,0,0,1-1.073,3.387c-.278.632-.63,1.224-.939,1.838-.215.428-.546.774-.772,1.188-.178.325-.416.606-.621.909a6.674,6.674,0,0,1-.9.937,9.181,9.181,0,0,1-2.091,1.49,20.824,20.824,0,0,1-2.045,1.019c-.782.321-1.573.62-2.377.884-.782.257-1.562.524-2.346.776a7.633,7.633,0,0,1-2.753.4c-.233-.012-.467-.007-.7-.01m16.4-13.254a.8.8,0,0,0,.079-.841c-.032.281-.035.566-.079.841m-.021.439c0-.035-.01-.071-.052-.059a.094.094,0,0,0-.062.1c0,.032.011.07.044.071.079,0,.062-.066.071-.11" transform="translate(-282.427 -32.21)" fill="#ef6f09"/>
    <path id="Path_86" data-name="Path 86" d="M351.137,50.3a11.583,11.583,0,0,1,1.337.046,13.582,13.582,0,0,1,2,.365,12.708,12.708,0,0,1,2.207.785,10.4,10.4,0,0,1,2.905,1.857,13.025,13.025,0,0,1,2.542,3.317,18.513,18.513,0,0,1,1.242,3.054,16.165,16.165,0,0,1,.678,3.744,19.877,19.877,0,0,1,.01,2.382,7.453,7.453,0,0,1-.872,3.1,14.15,14.15,0,0,1-2.575,3.447,7.959,7.959,0,0,1-1.947,1.463,26.867,26.867,0,0,1-3.217,1.507,12.619,12.619,0,0,1-1.5.378,13.77,13.77,0,0,1-2.143.244,14.681,14.681,0,0,1-1.932,0c-.249-.014-.5-.024-.748-.03a3.71,3.71,0,0,1-1.286-.33,11.47,11.47,0,0,1-1.357-.536,12.538,12.538,0,0,1-1.634-.911,4.62,4.62,0,0,0-.529-.342,7.615,7.615,0,0,1-.821-.6c-.658-.5-1.3-1.013-1.924-1.561-.382-.338-.737-.7-1.1-1.057-.579-.559-1.193-1.081-1.757-1.655a1.012,1.012,0,0,1-.254-.43,11.871,11.871,0,0,1-.409-1.731,6.4,6.4,0,0,1-.131-1.345,3.807,3.807,0,0,0-.056-.536,27.18,27.18,0,0,1-.065-3.111c.018-.546-.012-1.093.042-1.639a10.649,10.649,0,0,1,.62-3.04,8.179,8.179,0,0,1,1.6-2.573,13.23,13.23,0,0,1,2.53-2.007,13.485,13.485,0,0,1,2.15-1.092,17.542,17.542,0,0,1,1.973-.682,13.043,13.043,0,0,1,3.008-.445c.422-.016.844-.052,1.423-.034m9.472,14.476c0-.334.008-.568,0-.8a2.773,2.773,0,0,0-.179-.96c-.313-.742-.652-1.472-.97-2.212-.168-.39-.387-.759-.535-1.154a5.543,5.543,0,0,0-1.03-1.63c-.583-.685-1.231-1.312-1.839-1.976-.437-.478-.924-.909-1.367-1.382a4.092,4.092,0,0,0-1.517-1.015,5.782,5.782,0,0,0-2.47-.486,2.057,2.057,0,0,1-.286-.009,6.066,6.066,0,0,0-2.2.073,7.792,7.792,0,0,0-1.546.555,5.979,5.979,0,0,1-.775.427c-.28.1-.532.267-.808.363a1.869,1.869,0,0,0-.9.761c-.064.089-.086.191-.146.279-.355.513-.663,1.058-1.04,1.556a4.347,4.347,0,0,0-.461.757,7.358,7.358,0,0,1-.673,1.175,4.894,4.894,0,0,0-.707,1.848c-.171.73-.381,1.45-.521,2.187a11.789,11.789,0,0,0-.256,1.238c-.02.241-.023.486-.064.725a4.34,4.34,0,0,0,.054,1.606,14.515,14.515,0,0,0,.557,1.778c.172.51.425.992.633,1.49a2.5,2.5,0,0,0,.778.945c.3.25.613.488.9.753a7.886,7.886,0,0,0,1.05.82,3.187,3.187,0,0,1,.647.454c.186.2.384.393.576.588a2.1,2.1,0,0,0,.9.623,3.014,3.014,0,0,1,.838.443,2.51,2.51,0,0,0,1.135.454c.221.026.442.03.662.058.606.078,1.211.166,1.817.247a.693.693,0,0,0,.605-.126c.019-.01.041-.011.06-.02a2.918,2.918,0,0,1,1.234-.239c.234,0,.468.012.7,0a1.465,1.465,0,0,0,.811-.228c.222-.161.477-.275.7-.429a8.27,8.27,0,0,0,.763-.435c.317-.267.681-.465,1.019-.7a6.485,6.485,0,0,0,1.151-.893c.193-.211.395-.416.564-.645a4.539,4.539,0,0,0,.484-.628,10.949,10.949,0,0,0,.642-1.453c.224-.673.413-1.354.6-2.037a8.748,8.748,0,0,0,.407-2.744" transform="translate(-241.96 -36.029)" fill="#ef6f09"/>
    <path id="Path_87" data-name="Path 87" d="M443.686,106.055a4.6,4.6,0,0,1-.412,2.213c.179-.729.268-1.474.412-2.213" transform="translate(-317.534 -75.971)" fill="#79300e"/>
    <path id="Path_88" data-name="Path 88" d="M336.813,98a1.47,1.47,0,0,1,.157.888.13.13,0,0,1-.134.144c-.091-.007-.114-.092-.1-.166a2.233,2.233,0,0,0,.016-.716c0-.035.029-.075.062-.15" transform="translate(-241.213 -70.199)" fill="#79300e"/>
    <path id="Path_89" data-name="Path 89" d="M336.925,95.671c-.1-.135-.241-.256-.1-.423.055-.066-.016-.11-.053-.158a.07.07,0,0,1,.015-.108.138.138,0,0,1,.086-.028c.054.007.052.056.052.1,0,.207,0,.414,0,.621" transform="translate(-241.229 -68.019)" fill="#79300e"/>
    <path id="Path_90" data-name="Path 90" d="M336.826,92.461a.977.977,0,0,1,.049.441c0,.071-.036.124-.111.122s-.076-.062-.08-.114a.561.561,0,0,1,.142-.449" transform="translate(-241.178 -66.233)" fill="#79300e"/>
    <path id="Path_91" data-name="Path 91" d="M337.7,107.085c.016.123.023.194.035.264.008.049.042.108-.047.11a.077.077,0,0,1-.079-.08.314.314,0,0,1,.09-.294" transform="translate(-241.841 -76.709)" fill="#79300e"/>
    <path id="Path_92" data-name="Path 92" d="M336.929,90.117a.268.268,0,0,1,.076.338c-.143-.087-.1-.2-.076-.338" transform="translate(-241.336 -64.554)" fill="#79300e"/>
    <path id="Path_93" data-name="Path 93" d="M337.472,105.147c-.047-.012-.058-.056-.076-.092s-.043-.084.013-.107c.077-.032.085.03.091.082a.133.133,0,0,1-.028.117" transform="translate(-241.674 -75.172)" fill="#79300e"/>
    <path id="Path_94" data-name="Path 94" d="M452.068,104.557c.044-.275.047-.56.079-.841a.8.8,0,0,1-.079.841" transform="translate(-323.833 -74.296)" fill="#ffae00"/>
    <path id="Path_95" data-name="Path 95" d="M451.705,108.075c-.008.044.008.111-.071.11-.033,0-.044-.039-.044-.071a.094.094,0,0,1,.062-.1c.041-.013.047.024.052.059" transform="translate(-323.492 -77.374)" fill="#ffae00"/>
    <path id="Path_96" data-name="Path 96" d="M366.9,71.82a8.748,8.748,0,0,1-.407,2.744c-.191.683-.38,1.365-.6,2.037a10.957,10.957,0,0,1-.642,1.453,4.552,4.552,0,0,1-.484.628c-.17.228-.372.434-.564.645a6.486,6.486,0,0,1-1.151.893c-.338.235-.7.433-1.019.7a8.277,8.277,0,0,1-.763.435c-.228.154-.483.267-.7.429a1.465,1.465,0,0,1-.811.227c-.233.016-.467.005-.7,0a2.918,2.918,0,0,0-1.234.239c-.019.009-.042.01-.06.02a.693.693,0,0,1-.605.126c-.606-.081-1.211-.169-1.817-.247-.219-.028-.441-.033-.662-.058a2.511,2.511,0,0,1-1.135-.454,3.013,3.013,0,0,0-.838-.443,2.1,2.1,0,0,1-.9-.623c-.192-.2-.39-.384-.576-.588a3.187,3.187,0,0,0-.647-.454,7.889,7.889,0,0,1-1.05-.82c-.287-.265-.6-.5-.9-.753a2.5,2.5,0,0,1-.778-.945c-.208-.5-.462-.98-.633-1.49a14.5,14.5,0,0,1-.557-1.778,4.338,4.338,0,0,1-.054-1.606c.041-.239.044-.484.064-.725a11.773,11.773,0,0,1,.256-1.238c.141-.737.351-1.457.521-2.187a4.894,4.894,0,0,1,.707-1.848,7.363,7.363,0,0,0,.673-1.175,4.35,4.35,0,0,1,.461-.757c.378-.5.685-1.043,1.04-1.556.06-.087.083-.19.146-.279a1.869,1.869,0,0,1,.9-.761c.276-.1.528-.264.808-.363a5.969,5.969,0,0,0,.775-.427,7.793,7.793,0,0,1,1.546-.555,6.066,6.066,0,0,1,2.2-.073,2.056,2.056,0,0,0,.286.009,5.782,5.782,0,0,1,2.47.486,4.092,4.092,0,0,1,1.517,1.015c.443.473.93.9,1.367,1.382.608.664,1.256,1.292,1.839,1.976a5.541,5.541,0,0,1,1.03,1.63c.148.4.367.764.535,1.154.318.74.657,1.47.97,2.212a2.773,2.773,0,0,1,.179.96c.01.233,0,.467,0,.8" transform="translate(-248.248 -43.073)" fill="#ffae00"/>
  </g>
</svg>
