<svg xmlns="http://www.w3.org/2000/svg" width="141.543" height="121.256" viewBox="0 0 141.543 121.256">
  <g id="Group_12" data-name="Group 12" transform="translate(159.407 -3320.563)">
    <path id="Path_1" data-name="Path 1" d="M131.819,164.146c.06.125.051.329.3.343.068,0,.139.162.19.259q1.088,2.075,1.979,4.243c.372.9.745,1.806,1.141,2.7q1.577,3.546,3.18,7.082c.219.485.485.948.716,1.428.4.834.793,1.674,1.189,2.511l1.3,2.752c.018-.144.035-.222.036-.3.019-2.388.027-4.777.057-7.166.023-1.853.07-3.7.111-5.557.016-.735.023-1.472.068-2.206.077-1.252.157-2.505.279-3.753.092-.945.215-1.89.394-2.822a19.858,19.858,0,0,1,.581-2.084,1.362,1.362,0,0,1,1.195-.94c.118-.02.225-.1.343-.122.268-.057.512-.224.823-.048.157.089.41,0,.618.009a.477.477,0,0,1,.277.093,10,10,0,0,1,.876.849.729.729,0,0,1,.091.464c-.017.469-.074.936-.085,1.4s.007.958.023,1.437c.04,1.165.09,2.329.13,3.493.031.886.055,1.773.077,2.66q.039,1.574.07,3.148.044,2.171.084,4.343c.008.44.018.879.019,1.319q0,1.706,0,3.411c0,.757.014,1.514-.006,2.271-.024.888-.083,1.775-.118,2.663-.02.518-.017,1.037-.036,1.556-.024.633-.055,1.265-.09,1.9-.052.937-.144,1.874-.158,2.812a12.875,12.875,0,0,1-.372,3.264c-.121.439-.271.871-.417,1.3a.937.937,0,0,1-.163.253,10.489,10.489,0,0,1-.708.878,1.5,1.5,0,0,1-.52.271,3.494,3.494,0,0,1-.648.215.8.8,0,0,1-.431-.049c-.333-.135-.659-.29-.978-.455a.728.728,0,0,1-.233-.242c-.122-.177-.23-.364-.343-.546a3.126,3.126,0,0,1-1.355-.506,3.345,3.345,0,0,1-1.325-1.615c-.65-1.545-1.291-3.092-1.938-4.638-.353-.842-.7-1.687-1.069-2.522q-1.063-2.4-2.152-4.788c-.547-1.2-1.117-2.392-1.664-3.593-.4-.866-.771-1.74-1.156-2.61a1.25,1.25,0,0,0-.227-.366c-.013.187-.041.374-.038.561.013.736.039,1.472.054,2.208.021,1.026.032,2.053.056,3.08.01.428.054.856.064,1.285s-.015.861,0,1.291c.019.733.054,1.466.08,2.2.006.189,0,.378,0,.568,0,.925,0,1.85.013,2.775.017,1.169.054,2.336.073,3.5.021,1.291.031,2.583.049,3.875.006.393.048.786.041,1.178-.017,1.05-.051,2.1-.076,3.151-.006.254.022.51,0,.76a5.4,5.4,0,0,1-.507,2.2c-.018.032-.022.1-.036.1-.363.022-.288.364-.412.559-.153.241-.186.581-.486.7-.339.136-.654.323-1.026.477.007-.142.012-.243.016-.344l-.065-.023-.2.4a1.142,1.142,0,0,1-.714-.084.154.154,0,0,0-.127,0,.855.855,0,0,1-.919-.069c-.032-.021-.065-.071-.089-.066-.434.08-.6-.363-.927-.491a.863.863,0,0,1-.393-.44,6.13,6.13,0,0,1-.457-1.635,48.446,48.446,0,0,1-.187-5.055c-.027-.685-.007-1.371-.014-2.057s-.021-1.346-.032-2.019c-.025-1.536-.059-3.072-.072-4.608-.031-3.621-.069-7.243-.071-10.864,0-1.982.06-3.964.1-5.946.013-.686.041-1.371.07-2.056.048-1.166.088-2.333.157-3.5.1-1.582.219-3.161.453-4.729a13.086,13.086,0,0,1,.822-3.037,1.448,1.448,0,0,1,.8-.816,5.178,5.178,0,0,1,.773-.3.865.865,0,0,1,.694-.021c.128.07.333-.006.5-.009.075,0,.172-.013.222.026q.453.354.886.736a.332.332,0,0,1,.07.211c.012.164.013.329.009.493a1.243,1.243,0,0,0,.536,1.268,1.451,1.451,0,0,0,.357.163m15.418,28.536.075,0q-.013-.1-.025-.2l-.05.007Z" transform="translate(-284.769 3187.759)" fill="#161615"/>
    <path id="Path_2" data-name="Path 2" d="M371.259,273.512c.047-.408.486-.214.714-.443l.063.285a.857.857,0,0,1,.19-.067c.066-.007.142.038.2.02a.8.8,0,0,1,.969.269,1.725,1.725,0,0,0,.378.28c-.091.25.249.355.236.6l.063-.179.062,0a6.987,6.987,0,0,1,.21.859c.185,1.572.69,3.079.935,4.639.113.723.207,1.45.309,2.175.13.926.28,1.85.386,2.778q.235,2.058.418,4.122c.065.73.081,1.465.119,2.2.032.6.088,1.2.093,1.8.009.963-.039,1.927-.018,2.89a20.259,20.259,0,0,1-.114,2.762,15.7,15.7,0,0,1-.329,1.947,4.9,4.9,0,0,1-.9,1.819c-.161.21-.274.456-.416.681a2.141,2.141,0,0,1-1.215.84c-.17.057-.348.116-.333.382l-.244-.173-.161.246c-.093-.022-.2-.087-.277-.059-.394.146-.784-.035-1.179.015a2.03,2.03,0,0,1-1.066-.331A3.966,3.966,0,0,1,368.731,302c-.868-1.447-1.691-2.92-2.551-4.371-.5-.851-1.062-1.67-1.559-2.525-.471-.811-.932-1.633-1.331-2.482-.622-1.32-1.2-2.659-1.772-4-.3-.7-.529-1.424-.794-2.137a.284.284,0,0,0-.168-.166v.743c0,.617,0,1.234,0,1.852,0,.39.012.78.012,1.171,0,.833-.01,1.667,0,2.5,0,.5.039,1.008.042,1.513,0,.57-.018,1.14-.02,1.709-.008,1.725-.042,3.45-.006,5.174a18.359,18.359,0,0,1-.346,3.4,1.653,1.653,0,0,1-.5,1,2.875,2.875,0,0,0-.4.64.713.713,0,0,1-.477.34,2.628,2.628,0,0,0-.533.257l-.081-.26-.17.279c-.384,0-.76.021-1.133-.009a1.659,1.659,0,0,1-.564-.192,4.268,4.268,0,0,1-.8-.452,1.662,1.662,0,0,1-.512-1c-.131-.605-.206-1.223-.317-1.833a20.262,20.262,0,0,1-.318-3.783c.016-2.3-.016-4.6.009-6.9.013-1.2.1-2.408.159-3.612.053-1.115.1-2.231.17-3.345.081-1.328.176-2.656.274-3.984.072-.973.132-1.948.244-2.916.1-.893.257-1.781.422-2.665a2.6,2.6,0,0,1,.326-.8,1.8,1.8,0,0,1,1.176-.74,4.181,4.181,0,0,1,.7-.147,1.129,1.129,0,0,1,.374.119.613.613,0,0,1,.57-.029,1.481,1.481,0,0,1,.4.252c.281.217.473.524.758.746a1.048,1.048,0,0,1,.276.521c.054.184.118.294.327.294a1.123,1.123,0,0,1,.953.51c.145.2.389.319.554.505a2.652,2.652,0,0,1,.39.589q.628,1.279,1.228,2.571c.213.458.391.933.6,1.395.108.242.254.466.36.708.2.463.378.94.591,1.4.282.608.592,1.2.884,1.808.125.26.229.531.349.794q.874,1.921,1.753,3.841c.183.4.35.81.557,1.2.431.8.884,1.6,1.332,2.39a1.491,1.491,0,0,0,.188.2c.01-.172.022-.28.022-.389,0-1.792.022-3.584,0-5.376-.015-1.179-.078-2.358-.145-3.536-.052-.911-.151-1.82-.214-2.731-.068-1-.133-2-.172-3-.037-.974-.056-1.949-.049-2.923a10.911,10.911,0,0,1,.135-1.588,2.353,2.353,0,0,1,.318-.733.27.27,0,0,1,.265-.149.529.529,0,0,0,.46-.128c.035-.039.151-.006.288-.006M376.2,290.66h.02v-.181h-.02Z" transform="translate(-423.921 3119.307)" fill="#161615"/>
    <path id="Path_3" data-name="Path 3" d="M307.452,300.524a.505.505,0,0,1-.481.467.366.366,0,0,0-.246.111,2.266,2.266,0,0,1-.438.221v-.386l-.059-.02-.213.441c-.28,0-.579.088-.838-.131v-.367c-.133.2-.133.2.008.359-.023.041-.045.117-.07.118-.324.014-.66.09-.94-.168a.583.583,0,0,0-.228-.082.742.742,0,0,1-.2-.052c-.164-.112-.308-.258-.48-.356a1.309,1.309,0,0,1-.6-.755,8,8,0,0,1-.366-1.6,39.088,39.088,0,0,1-.169-4.185c-.017-1.1,0-2.21,0-3.315-.01-1.661-.042-3.322-.037-4.983,0-.773.07-1.546.106-2.319.013-.279.017-.559.033-.838.07-1.241.131-2.481.217-3.721a19.245,19.245,0,0,1,.478-3.191c.071-.3.121-.6.184-.893.027-.129,0-.288.193-.33.029-.007.064-.082.062-.123-.015-.331.188-.45.468-.5a.945.945,0,0,0,.279-.049,1.108,1.108,0,0,0,.221-.217l.232.163c.217-.185.338-.632.72-.219l.087-.264c.021.121.031.181.047.274.163-.044.337.081.5-.069.043-.038.146,0,.219-.015.093-.015.167.064.29-.038.159-.132.419.117.46.422a1.723,1.723,0,0,1,.167.078c.054.031.1.073.173.125-.073.365.282.6.353.957l.11-.411.062-.013a.717.717,0,0,1,.057.209c-.011.33-.031.659-.052.989a17.206,17.206,0,0,0,.006,2.564c.06.69.06,1.384.106,2.076s.117,1.38.17,2.071c.031.4.045.811.068,1.248a1.28,1.28,0,0,0,.248-.038c.429-.155.862-.3,1.279-.485a2.729,2.729,0,0,0,.635-.411,11.392,11.392,0,0,0,2.15-2.407,5.87,5.87,0,0,0,1.074-2.248,7.933,7.933,0,0,0,.086-2.61,3.538,3.538,0,0,0-.313-.973,4.4,4.4,0,0,0-1.468-1.858,4.542,4.542,0,0,0-2.435-.758c-.862-.011-1.727-.042-2.587.007-.7.041-1.4.188-2.084.286-.054.123-.09.2-.124.285-.019.047-.021.128-.05.139-.37.131-.347.542-.565.778a.378.378,0,0,1-.111.1c-.189.083-.38.165-.574.235-.13.046-.265-.049-.419.056-.1.07-.313-.02-.475-.033a.615.615,0,0,0-.141.021,1.155,1.155,0,0,1-1.07-.34.256.256,0,0,0-.164-.075c-.265,0-.375-.173-.46-.376-.166-.4-.331-.794-.486-1.2a1.783,1.783,0,0,1-.141-.5,2.473,2.473,0,0,1-.052-.833,2.019,2.019,0,0,1,.164-.412,3.376,3.376,0,0,1,1.645-1.345,7.975,7.975,0,0,1,2.555-.791c.652-.084,1.3-.214,1.95-.3.475-.065.953-.111,1.432-.139.658-.04,1.316-.081,1.974-.076a12.8,12.8,0,0,1,3.963.61,7.755,7.755,0,0,1,2.558,1.442,13.723,13.723,0,0,1,2.236,2.473,6.932,6.932,0,0,1,1.377,3.673,8.934,8.934,0,0,1-.194,3.4,10.66,10.66,0,0,1-.838,1.873c-.215.386-.4.787-.624,1.17a12.719,12.719,0,0,1-.7,1.13c-.266.368-.57.709-.87,1.051-.326.371-.666.73-1.059,1.158.155.46.329,1.015.528,1.56.549,1.5,1.1,3,1.667,4.5a26.3,26.3,0,0,1,1.139,3.67c.2.889.357,1.787.522,2.683a2.807,2.807,0,0,1-.221,1.693.387.387,0,0,0-.385.393.519.519,0,0,1-.389.424.27.27,0,0,0-.217.3l0,.02c-.325-.011-.45.344-.737.4l-.089.02-.118-.508-.055.005-.046.566c-.157,0-.28,0-.4,0-.357-.013-.356-.015-.475-.374a1.957,1.957,0,0,0-.1-.216c-.192.256.022.378.006.552a1.164,1.164,0,0,1-.9-.168,1.421,1.421,0,0,0-.423-.144l-.173-.3c-.624-.09-.834-.553-1.006-1.084-.354-1.09-.434-2.238-.73-3.338-.442-1.641-.9-3.277-1.355-4.916-.249-.9-.5-1.81-.745-2.714-.067-.242-.142-.482-.211-.713-.726-.108-1.448-.042-2.2-.161,0,.14-.014.322,0,.5.062.7.141,1.409.2,2.115.043.531.077,1.063.089,1.595.036,1.6.042,3.2.094,4.793a8.885,8.885,0,0,1-.222,2.147,1.192,1.192,0,0,1-.4.752c-.125.1-.166.3-.241.465-.093.2-.162.414-.387.513l-.264.106.039.072.227-.177m.075-20.888c.084-.352.084-.352-.113-.424l.113.424m1.779,7.666-.032-.1a.274.274,0,0,0-.326.192l.358-.09m-1.844-8.8.045,0v-.244l-.071.006c.009.081.018.162.027.243m.017-2.41.037,0v-.324l-.057,0,.02.322m.138,3.864-.064-.012c-.012.087-.024.174-.036.261l.06.009.04-.258" transform="translate(-390.758 3122.69)" fill="#161615"/>
    <path id="Path_4" data-name="Path 4" d="M372.012,168.573a1.023,1.023,0,0,1,.751-.069c.068.006.182.112.181.171-.005.261.225.236.374.339v.861l.42-.356.063.029a1.466,1.466,0,0,1-.068.3,6.62,6.62,0,0,0-.4,2.648c-.018.564-.051,1.128-.072,1.693-.011.3,0,.608-.017.911-.1,1.57-.191,3.139-.307,4.708-.076,1.023-.19,2.043-.283,3.064-.081.881-.156,1.763-.237,2.644-.115,1.236-.247,2.472-.348,3.709-.06.729-.068,1.462-.112,2.193-.026.429-.1.856-.112,1.285-.02.989-.019,1.979-.015,2.968,0,.3.032.608.06.911s.064.361.36.39q.942.091,1.888.142c.39.02.782,0,1.2,0a13.971,13.971,0,0,0,1.044-2.985,45.968,45.968,0,0,0,1.021-5.5c.236-1.733.447-3.47.686-5.2a55.494,55.494,0,0,1,1.068-5.643,11.381,11.381,0,0,1,1.024-2.652,1.53,1.53,0,0,1,.7-.711c.048-.022.108-.077.113-.122.034-.3.279-.349.492-.389a3.832,3.832,0,0,1,.895-.069.712.712,0,0,1,.474.207,4.847,4.847,0,0,0,.893.923.6.6,0,0,1,.155.3,5.583,5.583,0,0,1,.222,2.471c-.083.667-.1,1.341-.168,2.011-.107,1.084-.232,2.166-.345,3.249-.068.655-.116,1.311-.191,1.965-.141,1.234-.3,2.466-.441,3.7-.068.578-.1,1.161-.186,1.737-.134.89-.269,1.782-.459,2.662a27.321,27.321,0,0,1-1.4,4.621,6.261,6.261,0,0,1-.639,1.331c-.424.582-.74,1.236-1.22,1.777a.5.5,0,0,1-.146.117,4.212,4.212,0,0,1-2.2.575,21.018,21.018,0,0,0-2.885.037,21.574,21.574,0,0,1-2.2-.019,16,16,0,0,1-1.63-.109,6.134,6.134,0,0,1-.972-.286,6.05,6.05,0,0,1-2.166-1.43,1.72,1.72,0,0,1-.372-.48,6.375,6.375,0,0,1-.79-2.872c-.017-.953-.014-1.907.025-2.859s.128-1.9.207-2.845c.1-1.213.2-2.427.321-3.637.122-1.172.278-2.34.425-3.509.179-1.421.353-2.842.551-4.26q.3-2.164.649-4.321c.141-.887.293-1.773.485-2.65a9.275,9.275,0,0,1,1.3-2.944,1.742,1.742,0,0,1,.908-.627c.283-.115.586-.183.882-.27.243-.072.318-.051.549.155m-.274,20.831.057-.01v-.5h-.034l-.024.511m.139-1.5-.038.015v.393l.038,0Zm11.968-9.955.08,0q-.008-.155-.014-.31l-.08,0,.014.3m-4.787,22.728-.032-.069-.192.089.036.077.189-.1m-6.151-24.435-.07,0c-.008.086-.015.172-.022.258l.073,0c.006-.086.013-.172.019-.258m-.958,10.837-.037.006.011.171.026,0Z" transform="translate(-430.771 3182.903)" fill="#161615"/>
    <path id="Path_5" data-name="Path 5" d="M230.21,306.306c.062.137-.041.174-.131.172-.183,0-.365-.031-.583-.052-.056-.066-.133-.157-.208-.248l.208-.124-.145-.258-.058.021v.364l.055.065-.055.033-.134-.345c-.038.226-.2.195-.347.217a1.042,1.042,0,0,1-.066-.142c-.126-.439-.125-.439-.541-.355a2.078,2.078,0,0,1-.331-.342,1.326,1.326,0,0,1-.177-.486,2.024,2.024,0,0,0-.146-.535,2.121,2.121,0,0,1-.135-.813c-.019-2.287-.021-4.574-.036-6.862-.008-1.245-.046-2.49-.041-3.735.007-1.689.022-3.38.07-5.069.055-1.953.139-3.906.232-5.857.051-1.063.14-2.125.228-3.186.034-.4.115-.8.172-1.2.02-.137.034-.275.054-.445a1.722,1.722,0,0,0-.4-.19,2.125,2.125,0,0,1-.949-.6.288.288,0,0,1-.11-.149,3.386,3.386,0,0,1-.1-.979,1.12,1.12,0,0,1,.434-.631,6.589,6.589,0,0,1,1.2-.721,8.28,8.28,0,0,1,3.431-.716c.405,0,.811-.027,1.215-.006.453.023.9.088,1.356.13a11.446,11.446,0,0,1,1.965.379,7.538,7.538,0,0,1,3.295,1.719,4.655,4.655,0,0,1,1.045,1.226c.071.141.245.229.321.369a8.671,8.671,0,0,1,.523,1.087,8.51,8.51,0,0,1,.476,2.676c.044,1.141.07,2.283.1,3.425.025.862.066,1.723.069,2.585a13.366,13.366,0,0,1-.141,2.23c-.138.838-.205,1.686-.321,2.527-.059.427-.145.851-.243,1.271a.927.927,0,0,1-.342.617c-.03.02-.071.058-.07.086.02.353-.3.535-.406.823a1.532,1.532,0,0,1-.656.769,9.1,9.1,0,0,1-1.937.957,5.969,5.969,0,0,1-2.1.231c-.581-.012-1.163-.032-1.773-.049a2.6,2.6,0,0,0-.029.29q.012,1.714.03,3.428c0,.279.048.559.029.836q-.1,1.5-.239,3a3.1,3.1,0,0,1-.179.592l-.3-.068c-.024.054-.052.089-.053.123a4.528,4.528,0,0,1-.51,1.455.21.21,0,0,1-.306.126.243.243,0,0,0-.349.15c-.038.25-.2.253-.377.277a.639.639,0,0,0-.147.064l-.1-.28-.222.349c-.13,0-.293.006-.455,0s-.329-.016-.424-.19c-.013-.025-.089-.016-.136-.022-.025-.1.069-.224-.125-.363l.132.358m2.836-29.228c.029.284.051.532.081.78.09.766.216,1.528.267,2.3.069,1.037.079,2.078.12,3.117.043,1.1.1,2.2.137,3.306.026.73.029,1.462.046,2.193q.027,1.176.063,2.351c.008.263.033.526.051.814a11.588,11.588,0,0,0,1.808.154c.025-.179.053-.34.069-.5.042-.442.083-.883.117-1.326.066-.858.145-1.717.185-2.577.031-.659.01-1.321.011-1.982,0-1.639.022-3.278,0-4.917a15.251,15.251,0,0,0-.157-1.928,1.5,1.5,0,0,0-.7-1.089,6.283,6.283,0,0,0-2.1-.692m8.5,3.64-.029,0v.226l.029,0Z" transform="translate(-346.216 3119.276)" fill="#161615"/>
    <path id="Path_6" data-name="Path 6" d="M177.344,295.978c.045-1.245.048-2.415.137-3.578a41.727,41.727,0,0,1,.768-5.419c.133-.633.258-1.269.436-1.89a10.226,10.226,0,0,1,1.587-3.513,3.353,3.353,0,0,1,1.679-1.248,6.226,6.226,0,0,0,.7-.26,1.018,1.018,0,0,1,.666-.062c.266.061.365.01.377-.252a2.733,2.733,0,0,1,.853-1.653,1.9,1.9,0,0,1,.547-.4,4.843,4.843,0,0,1,.825-.453,11.063,11.063,0,0,1,1.934-.5,7.327,7.327,0,0,1,1.807.129c.151.019.3.044.451.065a3.292,3.292,0,0,1,1.974,1.089,7.851,7.851,0,0,1,1.223,1.643,5.3,5.3,0,0,1,.524,1.456c.232,1.1.455,2.215.579,3.334a12.773,12.773,0,0,1,.2,2.5c-.042.49.035.988.032,1.483,0,.735-.033,1.47-.053,2.205-.012.457-.013.914-.044,1.37-.042.606-.111,1.21-.167,1.815-.084.895-.148,1.793-.254,2.685a17.923,17.923,0,0,1-.632,2.885,18.169,18.169,0,0,1-1.371,3.5,18.4,18.4,0,0,1-1.3,2.06c-.146.2-.279.418-.432.617a4.768,4.768,0,0,1-1.611,1.183,5.449,5.449,0,0,1-1.623.488,14.648,14.648,0,0,1-3.9.1,3.647,3.647,0,0,1-.8-.225,6.124,6.124,0,0,1-2.467-1.514,5.4,5.4,0,0,1-1.185-1.8,23.53,23.53,0,0,1-1.194-4.205,16.865,16.865,0,0,1-.26-2.494c-.024-.4,0-.813,0-1.142m10.68-15.134a5.031,5.031,0,0,1-.572.127c-.675.066-1.351.119-2.027.176-.518.043-.613.056-.776.6a13.126,13.126,0,0,0-.351,1.518c-.112.648-.159,1.307-.276,1.953a16.177,16.177,0,0,0-.217,2.187c-.014.33-.029.659-.053.988-.061.844-.14,1.686-.186,2.53-.035.634-.04,1.269-.04,1.9,0,.506.029,1.012.039,1.518.016.8.008,1.6.044,2.4a19.686,19.686,0,0,0,.736,4.108c.132.5.338.982.5,1.475a.545.545,0,0,0,.427.383c.367.079.739.141,1.149.217.287-.53.578-1.018.82-1.529a9.706,9.706,0,0,0,.47-1.242,19.86,19.86,0,0,0,.561-1.974c.184-.9.328-1.82.43-2.738q.211-1.888.327-3.787c.055-.924.057-1.853.043-2.78-.017-1.116-.033-2.234-.129-3.344a22.646,22.646,0,0,0-.651-3.776c-.076-.29-.171-.576-.272-.913" transform="translate(-316.342 3117.082)" fill="#161615"/>
    <path id="Path_7" data-name="Path 7" d="M337.359,200.678a2.2,2.2,0,0,1-1.572.374.314.314,0,0,0-.141-.009,1.739,1.739,0,0,1-1.147-.244,2.117,2.117,0,0,1-1.176-1.789,14.383,14.383,0,0,1-.155-3.069c.02-1.1.007-2.21.007-3.316,0-.239,0-.479,0-.751l-2.351-.319c0,2.6.142,5.179-.1,7.762a1.72,1.72,0,0,1-.212.054.305.305,0,0,0-.3.293c-.029.2-.059.4-.091.614-.173,0-.349-.044-.389.188-.006.033-.179.037-.3.058-.046.122.048.369-.242.357-.02,0-.055.079-.064.126-.032.169-.145.186-.3.166-.046-.1-.1-.2-.14-.3a1.218,1.218,0,0,0-.14-.331l-.082.755c-.115.02-.2.033-.285.051-.222.047-.434-.188-.631-.07-.223.134-.415-.014-.618-.009-.118,0-.377-.025-.348-.267-.132,0-.292.046-.389-.012-.119-.072-.185-.231-.267-.344-.114-.02-.257,0-.327-.067a1.561,1.561,0,0,1-.36-.456,4.742,4.742,0,0,1-.336-1.922c-.053-1.166-.1-2.332-.122-3.5-.013-.684.037-1.369.039-2.053.006-1.842,0-3.684,0-5.526,0-.762.015-1.525.021-2.287,0-.457-.008-.913.009-1.37.043-1.154.064-2.31.156-3.461a23.321,23.321,0,0,1,.526-3.875c.037-.148.078-.294.126-.439.084-.258.147-.473-.125-.709a.919.919,0,0,1-.153-.648c.008-.211.2-.348.371-.482a4.2,4.2,0,0,1,2.1-.689c.588-.08,1.178-.17,1.77-.2a9.939,9.939,0,0,1,1.4.08c.87.085,1.721.283,2.58.435.927.164,1.817.442,2.719.685a.608.608,0,0,1,.426.289.587.587,0,0,0,.232.181.643.643,0,0,1,.379.439.347.347,0,0,0,.19.2.664.664,0,0,1,.381.484c.146.589.283,1.181.4,1.778.082.434.129.876.176,1.315.064.614.133,1.229.168,1.845.086,1.534.164,3.068.224,4.6.036.942.029,1.886.051,2.829.012.507.056,1.013.067,1.519.009.414-.008.829-.012,1.243,0,.634-.035,1.269,0,1.9a35.4,35.4,0,0,1-.147,3.647,17.99,17.99,0,0,1-.3,2.217,6.822,6.822,0,0,1-.211.729c-.01.037-.014.089-.039.1-.352.226-.458.628-.681.944a1.679,1.679,0,0,1-.276.249l.064-.231-.313.221Zm1.028-2.849c.029-.021.081-.04.084-.064.035-.27.063-.54.092-.811l-.08-.008c-.03.3-.059.594-.086.893-.026.159-.052.317-.078.476l.1.005q-.014-.246-.028-.49m-8.618-21.87c.309,3.983.613,7.891.917,11.808a11.553,11.553,0,0,0,2.545.072c.04-3.732-.154-7.411-.458-11.111l-3-.769m8.924,13.047v-.783a.875.875,0,0,0,0,.783m-.272-7.089-.066.036c.049.069.126.132.139.207a1.65,1.65,0,0,1-.014.339c0,.085,0,.17,0,.255.115-.487.091-.675-.057-.836m.14,14.192.058.009a.828.828,0,0,0,.022-.122.882.882,0,0,0-.015-.128l-.041.006c-.008.078-.017.156-.024.234m.021-12.377h.027v-.208h-.027Zm-8.722-2.476.075.008-.02-.227-.055,0Zm.223,2.031c-.037.072-.063.1-.065.133a.261.261,0,0,0,.033.1l.043-.013c0-.056-.005-.113-.011-.215m8.38-2h-.026v.192h.026Z" transform="translate(-405.917 3180.12)" fill="#161615"/>
    <path id="Path_8" data-name="Path 8" d="M457.142,272.652c-.121.1-.259.117-.336.282-.068.143-.3.214-.471.3a2.15,2.15,0,0,1-1.442.144,4.655,4.655,0,0,0-.853-.12c-1.1-.013-2.2-.064-3.307-.081a9.63,9.63,0,0,0-1.249.074.756.756,0,0,0-.386.21,2.865,2.865,0,0,0-.9,1.76c-.09.661-.183,1.324-.231,1.989-.051.7-.047,1.41-.073,2.115-.042,1.14-.1,2.279-.132,3.419-.047,1.739-.077,3.479-.11,5.218q-.036,1.894-.057,3.788c0,.227.051.454.052.68,0,.3-.036.607-.039.91a36.808,36.808,0,0,0,.285,6.112c.121.774.307,1.538.466,2.318a8.026,8.026,0,0,0,.817,0,15.64,15.64,0,0,0,2.387-.394c.793-.21,1.6-.362,2.4-.54.515-.115,1.029-.233,1.544-.346a2.456,2.456,0,0,1,1.488.086,1.3,1.3,0,0,0,.362.045.366.366,0,0,1,.368.341l-.211.192c.047.031.077.068.1.066.1-.009.2-.031.329-.054-.029.189.066.257.234.226-.11.363-.105.381.2.56a3.11,3.11,0,0,0,.3.148c.209.1.235.274.041.4a3.908,3.908,0,0,1-.484.216c.2.21.045.42-.008.615-.031.115-.21.214-.344.27a.554.554,0,0,0-.379.389l.188.055c-.024.031-.039.07-.066.083-.479.232-.953.475-1.44.688a18.474,18.474,0,0,1-1.755.709c-.686.219-1.393.371-2.094.537-.393.093-.791.175-1.19.232a12.165,12.165,0,0,1-1.355.133,16.656,16.656,0,0,1-1.736.163c-.721-.053-1.449-.035-2.167-.109a2.924,2.924,0,0,1-.993-.331,4.708,4.708,0,0,1-2.571-3.033c-.233-.867-.421-1.749-.588-2.632a28.765,28.765,0,0,1-.393-5.725c.009-.775-.006-1.551.01-2.326q.047-2.286.118-4.571c.027-.913.057-1.827.1-2.739.056-1.1.138-2.2.2-3.3.047-.9.061-1.8.112-2.7a18.42,18.42,0,0,1,.575-4.06,8.664,8.664,0,0,1,2.026-3.612,6.842,6.842,0,0,1,1.369-1.016,7,7,0,0,1,1.992-.78,4.2,4.2,0,0,1,1.089-.057c.315,0,.63.035.944.068.5.053,1.01.091,1.506.185.944.178,1.881.387,2.819.591.283.062.561.146.839.229a3.906,3.906,0,0,1,1.5,1.061,1.646,1.646,0,0,1,.59.932" transform="translate(-476.72 3121.428)" fill="#161615"/>
    <path id="Path_9" data-name="Path 9" d="M245.883,204.889c.1-1.443.153-2.889.3-4.326a24.7,24.7,0,0,1,.67-3.7,17.076,17.076,0,0,1,2.109-4.579,6.01,6.01,0,0,0,.35-.59,1.818,1.818,0,0,1,1.178-.882c.282-.1.58-.159.87-.239a.258.258,0,0,0,.128-.073,2.7,2.7,0,0,1,1.2-.775,6.548,6.548,0,0,1,1.613-.59,8.123,8.123,0,0,1,1.578.07c.1.009.2.048.3.05a2.092,2.092,0,0,1,1.45.815,1.934,1.934,0,0,0,.524.5.332.332,0,0,1,.111.1,6.913,6.913,0,0,1,1.4,2.542c.273,1.162.423,2.345.617,3.52a20.16,20.16,0,0,1,.2,3.6c-.02,1.355-.086,2.707-.212,4.057a32.111,32.111,0,0,1-.793,4.6,17.758,17.758,0,0,1-.8,2.291,8.609,8.609,0,0,1-.734,1.41c-.375.6-.8,1.167-1.2,1.751a3.017,3.017,0,0,1-1.442,1.129c-.424.163-.854.312-1.282.465a.461.461,0,0,1-.15.024,8.548,8.548,0,0,1-2.5-.144,5.49,5.49,0,0,1-1.428-.679,8.12,8.12,0,0,1-2.3-2.551,6.459,6.459,0,0,1-.8-1.8c-.24-.854-.484-1.709-.66-2.577a21.008,21.008,0,0,1-.305-3.411m8.29-11.292a2.1,2.1,0,0,1-1,.683c-.157.038-.172.163-.194.292-.176,1.01-.374,2.016-.526,3.03q-.209,1.392-.335,2.8c-.075.845-.084,1.7-.141,2.542a23.983,23.983,0,0,0,.05,3.709,18.291,18.291,0,0,0,.842,3.815,9.853,9.853,0,0,0,.469,1.064,3.78,3.78,0,0,0,.74-1.278,14.179,14.179,0,0,0,.748-2.585,20.421,20.421,0,0,0,.344-3.585c.039-1.393-.02-2.789-.054-4.184-.015-.607-.051-1.216-.113-1.82a33.259,33.259,0,0,0-.584-3.475c-.064-.305-.146-.607-.243-1.006M260,203.891l.1.011v-.283l-.071,0-.027.275m0,.52.049,0v-.272h-.049Z" transform="translate(-357.982 3170.307)" fill="#161615"/>
    <path id="Path_10" data-name="Path 10" d="M151.75,303.561l-.474.261.5.037-.2.239c.036.027.053.051.074.054a.871.871,0,0,0,.3.026c.281-.069.444.1.627.269-.145.233-.423.136-.621.249a.808.808,0,0,0,.629.355l-.221.067.957.149c-.035.088-.042.169-.08.188-.135.066-.285.1-.42.166a1.885,1.885,0,0,0-.258.179l.194.244-.376.207.342.175-.836.5.349.117c0,.036,0,.051,0,.06-.127.189-.413.131-.512.254a.552.552,0,0,1-.467.246.087.087,0,0,0-.037.009,4.772,4.772,0,0,1-2.124.174c-.709,0-1.417-.022-2.126-.017a11.716,11.716,0,0,1-3.133-.335c-.832-.223-1.652-.488-2.471-.754a16.11,16.11,0,0,1-1.641-.6,5.342,5.342,0,0,1-2.352-2.038,3.132,3.132,0,0,1-.473-1.273c-.038-.3-.163-.583-.223-.878a13,13,0,0,1-.209-2.984c.013-.482-.006-.966,0-1.448.021-1.189.021-2.38.083-3.568a57.445,57.445,0,0,1,.6-5.861c.2-1.314.422-2.625.643-3.936.135-.8.265-1.6.436-2.392a8.6,8.6,0,0,1,1.273-3.075,5.122,5.122,0,0,1,1.812-1.642c.29-.155.58-.312.881-.442a14.8,14.8,0,0,1,2.821-.928,13.34,13.34,0,0,1,2.726-.117h.4c.11-.514.228-1.016.324-1.522a2.319,2.319,0,0,1,.782-1.357,5.369,5.369,0,0,1,.818-.522.32.32,0,0,1,.175,0c.033,0,.088.046.092.041.211-.282.585-.074.79-.269l.548.256a.413.413,0,0,1,.535-.124c.082.039.2-.014.294.017.123.043.308.108.33.2a.331.331,0,0,0,.258.266.521.521,0,0,1,.33.422c.049.281.2.35.434.376.02,0,.038.029.075.058a6.126,6.126,0,0,0-.151,1.606c-.041.7-.122,1.389-.187,2.083-.033.349-.023.7-.033,1.048a2.956,2.956,0,0,1-.257,1.348.649.649,0,0,0-.074.291,1.641,1.641,0,0,1-.575,1.176,3.119,3.119,0,0,1-.665.376c-.018-.123-.029-.2-.052-.364l-.17.367c-.38-.05-.787.088-1.149-.145a1.7,1.7,0,0,0-.783-.23c-.123-.013-.23-.176-.394-.313-.042,0-.194.054-.276,0s-.066-.212-.1-.335a1.139,1.139,0,0,0-.2-.07.662.662,0,0,1-.6-.629,1.565,1.565,0,0,0-.192-.712.935.935,0,0,1-.064-.347c-.407.039-.8.062-1.183.117a5.308,5.308,0,0,0-2.21.845,1.771,1.771,0,0,0-.745,1.107c-.124.517-.226,1.039-.312,1.564-.159.974-.31,1.95-.442,2.928-.076.564-.11,1.134-.161,1.7-.078.87-.167,1.74-.229,2.611-.08,1.122-.16,2.244-.2,3.368-.044,1.281-.051,2.563-.057,3.845s-.028,2.565.031,3.844a9.2,9.2,0,0,0,.364,1.744.427.427,0,0,0,.27.228c1.081.314,2.16.639,3.252.9a6.072,6.072,0,0,0,1.28.066c.477.011.954.012,1.432.01a3.854,3.854,0,0,0,.639-.034,2.879,2.879,0,0,1,.9.086c.3.04.6.035.906.062a1.336,1.336,0,0,1,.2.079m-8.906-18.915.082.011q.045-.364.09-.729l-.064-.008-.108.726" transform="translate(-291.511 3120.038)" fill="#161615"/>
    <path id="Path_11" data-name="Path 11" d="M270.177,276.674c-.007-.109-.013-.219-.021-.352.027-.05.229.043.162-.146a.173.173,0,0,1,0-.093c.25-.044.37-.3.615-.367.224-.066.418-.228.638-.316a5.1,5.1,0,0,1,2.278-.3c.78.058,1.556.2,2.33.327.323.052.64.148.959.228a.9.9,0,0,1,.518.36,4.3,4.3,0,0,0,.486.473c0,.047-.01.156-.018.279a2.5,2.5,0,0,0,.345.176c.125.042.275.071.243.226-.014.068-.166.108-.264.147-.14.083-.013.338-.245.382-.006,0,.049.166.017.223-.13.237-.222.492-.508.626a5.146,5.146,0,0,1-2.541.5c-.528-.032-1.057-.041-1.609-.061.022.307.044.6.063.9.067,1.047.15,2.094.193,3.142.025.594-.027,1.191-.02,1.786.008.774.04,1.548.06,2.321.005.227,0,.454,0,.681-.019,1.219-.042,2.438-.058,3.657-.006.479,0,.958,0,1.456.342,0,.69-.009,1.038,0,.582.02,1.166.029,1.745.09a1.348,1.348,0,0,1,.9.436.5.5,0,0,0,.18.134.362.362,0,0,1,.226.489l.479.111c-.107.186-.2.364-.309.533-.052.083-.143.143-.189.229a1.776,1.776,0,0,1-.99.835c-.273.1-.535.231-.811.327a4.276,4.276,0,0,1-1.677.178c-.187-.011-.376,0-.584,0,0,.547,0,1.063,0,1.578.005.455,0,.911.04,1.364a10.3,10.3,0,0,0,.176,1.239c.069.334.2.655.284.987a.376.376,0,0,0,.366.315c.754.079,1.508.153,2.261.24a7.16,7.16,0,0,1,1.548.279c.3.1.616.139.916.233a4.036,4.036,0,0,1,1.386.98,8.137,8.137,0,0,1,.744.854l.368.426c-.16.193-.347.33-.406.509a.71.71,0,0,1-.457.428l.046.124a5.166,5.166,0,0,1-2.66.671c-.718.02-1.434.142-2.152.175a12.906,12.906,0,0,1-2.049.054c-.528-.059-1.063-.066-1.595-.084a4.582,4.582,0,0,1-1.824-.495,5.6,5.6,0,0,1-3.028-3.6,14.3,14.3,0,0,1-.575-4.732c.038-1.155.043-2.311.1-3.465.07-1.456.18-2.91.268-4.365.041-.684.064-1.369.108-2.052.058-.911.13-1.821.194-2.731.031-.43.055-.86.087-1.29a24.448,24.448,0,0,1,.5-3.726c.134-.577.37-1.132.56-1.7.061-.18.118-.362.188-.539a1.329,1.329,0,0,1,.782-.83c.069-.025.136-.055.2-.08.043-.15-.212-.282.006-.407l.239.151.027-.057-.276-.083" transform="translate(-370.927 3118.084)" fill="#161615"/>
    <path id="Path_12" data-name="Path 12" d="M299,200.617c.274,0,.537.006.8,0a14.348,14.348,0,0,1,2.9.281,3.741,3.741,0,0,1,1.322.435,4.083,4.083,0,0,1,.426.356,1.482,1.482,0,0,1,.263.2c.1.134.409.089.335.388-.008.031.157.106.256.17-.218.166.2.3-.018.457.194.16.6.123.455.549l-.229-.025-.408.348.182.254-.31-.018c-.014.019-.029.035-.027.038.076.122.153.243.252.4h-.321c-.086.179-.086.179-.475.327.055.037.086.062.121.082s.088.047.139.073a1.048,1.048,0,0,1-.279.221,1.062,1.062,0,0,1-.369-.027l.113.274c-.2.032-.378.051-.551.093s-.338.162-.5.149a10.425,10.425,0,0,1-1.722-.06.589.589,0,0,0-.227-.013,11.423,11.423,0,0,0-2.4.311,5.827,5.827,0,0,0-.923.429,2.871,2.871,0,0,1-2.053.389,2.773,2.773,0,0,0-.6.012,1.094,1.094,0,0,1-.712-.214,4.021,4.021,0,0,0-.578-.283l-.078-.439a1.211,1.211,0,0,0-.227,0c-.216.044-.417.078-.42-.245,0-.026-.045-.068-.075-.075-.294-.064-.267-.29-.269-.508a1.616,1.616,0,0,0-.249-.849.465.465,0,0,1-.028-.216c.026-1.409.052-2.818.084-4.226q.025-1.123.071-2.246c.048-1.179.109-2.357.157-3.536.03-.746.049-1.493.069-2.239.028-1,.046-2,.083-3.006.041-1.1.086-2.206.153-3.307.1-1.634.161-3.269.161-4.905,0-1.118-.044-2.237,0-3.354a18.694,18.694,0,0,1,.2-3.334,7.048,7.048,0,0,0,.023-1.51.631.631,0,0,1,.276-.543,2.8,2.8,0,0,1,.839-.364,2.151,2.151,0,0,1,1.184.016,1.09,1.09,0,0,1,.372.168,4.676,4.676,0,0,1,.6.486.524.524,0,0,1,.134.337,4.7,4.7,0,0,0,.341,1.577,9.568,9.568,0,0,1,.5,2.061c.095.752.234,1.5.337,2.25.124.9.261,1.8.339,2.711.131,1.528.195,3.061.335,4.587.107,1.161.1,2.321.131,3.483.016.71.07,1.419.094,2.128.026.745.06,1.492.047,2.237-.027,1.508-.09,3.016-.127,4.524-.017.68-.014,1.36,0,2.04a6.1,6.1,0,0,0,.091.7m-2.313-28.258.1-.013c-.027-.084-.051-.171-.086-.252,0-.011-.061,0-.124,0l.11.267" transform="translate(-386.307 3181.172)" fill="#161615"/>
    <path id="Path_13" data-name="Path 13" d="M228.236,172.395l.146.4.5.12-.145.387c.18.2.458.052.676.125.006.048.018.09.01.095-.367.206-.406.643-.654.937a1.683,1.683,0,0,1-.4.381,3.369,3.369,0,0,0-1.128,1.114c-.486.786-1,1.562-1.4,2.39a23.777,23.777,0,0,0-1.584,4.359,49.6,49.6,0,0,0-1.18,5.769c-.087.616-.176,1.233-.224,1.853-.1,1.235-.19,2.47-.234,3.707-.037,1.039-.008,2.08,0,3.12a7.376,7.376,0,0,0,.575,3.033,6.152,6.152,0,0,0,.575.981,1.933,1.933,0,0,0,.909.6c.455.188.944.3,1.386.513a5.176,5.176,0,0,0,1.583.338,3.428,3.428,0,0,1,.508.165l.342-.138.026.036-.254.214.329.372c-.127.169-.25.338-.378.5a3.906,3.906,0,0,1-1.183.875,8.1,8.1,0,0,1-2.3.889,3.019,3.019,0,0,1-.717.082,18.884,18.884,0,0,1-1.9-.059,4.868,4.868,0,0,1-2.511-1.08c-.336-.266-.638-.574-.956-.864a6.382,6.382,0,0,1-1.187-1.622,10.456,10.456,0,0,1-1.136-2.853,9.739,9.739,0,0,1-.244-2.189c0-1.32-.026-2.642.035-3.959.054-1.176.179-2.351.329-3.519.144-1.118.343-2.231.555-3.338.116-.609.3-1.205.466-1.8a29.705,29.705,0,0,1,2.765-6.949,12.206,12.206,0,0,1,1.971-2.734,9,9,0,0,1,2.238-1.489,8.15,8.15,0,0,1,2.109-.808,2.1,2.1,0,0,1,.524-.067c.374.02.746.071,1.156.113m-5.3,15.2c-.216.12-.114.3-.082.461-.228.144-.083.349-.086.53l-.126.33.048.016.078-.348c.028-.177.056-.355.081-.537.027-.152.055-.3.079-.459V187.2l-.052.006q.03.194.06.387m-.334,1.943h.02v-.254h-.02Zm-.049.418h-.034v.173a.122.122,0,0,0,.032-.005c0-.056,0-.112,0-.168" transform="translate(-339.881 3180.534)" fill="#161615"/>
    <path id="Path_14" data-name="Path 14" d="M192.915,210.228c-.02-.2-.047-.37-.051-.538a.924.924,0,0,0-.295-.746,2.785,2.785,0,0,1-.689-1.167,9.717,9.717,0,0,1-.377-2.084c-.1-.612-.153-1.233-.215-1.851-.044-.44-.071-.883-.1-1.325-.18-2.42-.17-4.845-.174-7.268-.005-2.82.017-5.641.039-8.461.009-1.117.048-2.234.075-3.351.021-.875.015-1.753.074-2.625q.138-2.047.353-4.089c.066-.628.2-1.249.324-1.868a1.289,1.289,0,0,1,.787-1.025,7.026,7.026,0,0,1,1.167-.438.434.434,0,0,1,.494.151.824.824,0,0,1,.988.125,2.807,2.807,0,0,0,.271.2c.061.042.144.067.184.123a3.073,3.073,0,0,1,.75,1.6c.067,1.062.179,2.121.236,3.183.052.986.058,1.974.08,2.96q.046,2.032.086,4.065c.024,1.218.044,2.435.069,3.653.021,1.025.062,2.05.067,3.075.005.849-.038,1.7-.042,2.546,0,.924.041,1.85.016,2.774-.032,1.163-.113,2.326-.172,3.489-.037.735-.048,1.473-.115,2.206-.091,1.009-.229,2.014-.334,3.022a4.057,4.057,0,0,1-.346,1.229,2.442,2.442,0,0,1-.588.919,1.443,1.443,0,0,0-.4,1.1,5.9,5.9,0,0,1-.671.555c-.245.15-.542.068-.846.082-.086-.316-.32-.336-.637-.218m3.545-7.784.089.02v-1.292l-.016,0q-.037.638-.073,1.275" transform="translate(-324.649 3179.871)" fill="#161615"/>
    <path id="Path_15" data-name="Path 15" d="M423.625,300.675l-.051.322a1.011,1.011,0,0,1-.838-.126.524.524,0,0,0-.208-.066c-.047-.011-.111.009-.144-.016a4.448,4.448,0,0,1-.847-.675,3.037,3.037,0,0,1-.45-.951,10.786,10.786,0,0,1-.395-3.187c-.027-1.129-.106-2.257-.115-3.386-.019-2.439-.014-4.878,0-7.317,0-1.117.045-2.233.063-3.35.009-.558-.011-1.117.01-1.674.026-.721.081-1.441.12-2.161.037-.684.056-1.37.106-2.053a35.5,35.5,0,0,1,.476-4c.061-.322.131-.643.186-.966a.8.8,0,0,1,.513-.641c.288-.123.573-.252.861-.373a2.149,2.149,0,0,1,1.039-.066,1.561,1.561,0,0,1,.369.035,1.184,1.184,0,0,1,.344.206,1.146,1.146,0,0,1,.21.246,2.062,2.062,0,0,0,.547.536c.061.041.085.154.1.239.128.659.281,1.314.367,1.978.115.886.178,1.779.262,2.669.065.692.141,1.384.191,2.077.068.945.119,1.891.173,2.837.085,1.494.181,2.988.245,4.482.059,1.378.079,2.758.121,4.138.053,1.764.119,3.527.164,5.29a19.5,19.5,0,0,1-.142,3,6.1,6.1,0,0,1-.475,1.707.4.4,0,0,1-.042.106,4.442,4.442,0,0,0-.7.974.1.1,0,0,1-.054.052c-.379.1-.685.4-1.1.4-.157,0-.314.066-.471.068-.312,0-.312-.005-.426-.359m1.741-29.072.05-.017-.061-.217-.074.025.084.208" transform="translate(-464.097 3121.195)" fill="#161615"/>
    <path id="Path_16" data-name="Path 16" d="M271.1,257.5l.055-.281.529-.038.334-.373.457.06c-.012-.2.083-.258.269-.187.139.053.278.109.445.174.031-.026.085-.113.139-.112a4.993,4.993,0,0,1,.785.062c.272.05.391.288.529.5.148.232.276.5.6.557a.353.353,0,0,1,.191.178c.221.4.613.694.716,1.168a.484.484,0,0,0,.13.229,5.819,5.819,0,0,1,.819,1.424,1.962,1.962,0,0,1,.35.953,1.715,1.715,0,0,1-.019.2l-.093.058-.174-.31c-.242.161.081.2-.005.344l-.193.035v.677l-.346-.094c.019.173.035.326.056.519-.138.027-.3.054-.457.1-.04.011-.066.068-.1.1s-.1.12-.156.126c-.379.039-.742.249-1.141.1-.079-.03-.19.034-.288.036a2.3,2.3,0,0,1-1.256-.341,5.459,5.459,0,0,1-1.392-1.165,12.4,12.4,0,0,1-1.4-1.8,1.581,1.581,0,0,1-.316-.918.584.584,0,0,0-.071-.214,1.938,1.938,0,0,1-.095-.908.1.1,0,0,1,.007-.037,3.2,3.2,0,0,1,.529-.737c.226.082.311-.11.435-.238l.127.155" transform="translate(-372.626 3129.282)" fill="#161615"/>
    <path id="Path_17" data-name="Path 17" d="M346.295,351.819l0-.02.265-.19c-.037.191-.117.247-.26.21" transform="translate(-418.977 3071.596)" fill="#161615"/>
    <path id="Path_18" data-name="Path 18" d="M181.09,242.353v-.192l.05-.007q.012.1.025.2l-.075,0" transform="translate(-318.622 3138.087)" fill="#161615"/>
    <path id="Path_19" data-name="Path 19" d="M409.894,317.6v-.181h.02v.181h-.02" transform="translate(-457.615 3092.363)" fill="#161615"/>
    <path id="Path_20" data-name="Path 20" d="M319.253,297.763l-.113-.424c.2.072.2.072.113.424" transform="translate(-402.484 3104.564)" fill="#161615"/>
    <path id="Path_21" data-name="Path 21" d="M323.4,317.782l-.358.09a.274.274,0,0,1,.326-.192l.032.1" transform="translate(-404.856 3092.21)" fill="#161615"/>
    <path id="Path_22" data-name="Path 22" d="M319.217,295.138c-.009-.081-.018-.162-.027-.243l.071-.006v.245l-.045,0" transform="translate(-402.514 3106.052)" fill="#161615"/>
    <path id="Path_23" data-name="Path 23" d="M313.3,352.845c-.141-.164-.141-.164-.008-.359,0,.161,0,.264,0,.367l.008-.008" transform="translate(-398.87 3071.063)" fill="#161615"/>
    <path id="Path_24" data-name="Path 24" d="M319.271,288.878l-.02-.321.057-.005v.324l-.037,0" transform="translate(-402.552 3109.902)" fill="#161615"/>
    <path id="Path_25" data-name="Path 25" d="M319.5,299.21c-.013.086-.027.172-.04.258l-.06-.009c.012-.087.024-.174.036-.261l.064.012" transform="translate(-402.641 3103.435)" fill="#161615"/>
    <path id="Path_26" data-name="Path 26" d="M318.826,351.632l-.226.177-.039-.072.264-.106h0" transform="translate(-402.132 3071.583)" fill="#161615"/>
    <path id="Path_27" data-name="Path 27" d="M381.077,221.148l.024-.511h.033v.5l-.057.009" transform="translate(-440.109 3151.158)" fill="#161615"/>
    <path id="Path_28" data-name="Path 28" d="M381.372,218.128v.405l-.038,0v-.392l.038-.015" transform="translate(-440.265 3152.682)" fill="#161615"/>
    <path id="Path_29" data-name="Path 29" d="M411.9,192.293l-.014-.3.08,0c0,.1.009.207.014.31l-.08,0" transform="translate(-458.824 3168.563)" fill="#161615"/>
    <path id="Path_30" data-name="Path 30" d="M399.377,250.563l-.188.1-.036-.077.192-.089.033.07" transform="translate(-451.089 3133.022)" fill="#161615"/>
    <path id="Path_31" data-name="Path 31" d="M383.912,188.411c-.006.086-.013.172-.019.258l-.073,0c.007-.086.014-.172.022-.258l.07,0" transform="translate(-441.776 3170.737)" fill="#161615"/>
    <path id="Path_32" data-name="Path 32" d="M381.557,216.027v.176l-.026,0-.011-.171.037-.006" transform="translate(-440.378 3153.959)" fill="#161615"/>
    <path id="Path_33" data-name="Path 33" d="M233.588,356.745v-.363l.058-.021.145.258c-.082.049-.144.087-.208.124l0,0" transform="translate(-350.51 3068.71)" fill="#161615"/>
    <path id="Path_34" data-name="Path 34" d="M264.761,292.475v.226l-.029,0v-.226l.029,0" transform="translate(-369.433 3107.519)" fill="#161615"/>
    <path id="Path_35" data-name="Path 35" d="M235.728,357.109l-.131-.358c.194.14.1.264.124.363l.007-.006" transform="translate(-351.733 3068.473)" fill="#161615"/>
    <path id="Path_36" data-name="Path 36" d="M360.063,212.626a.878.878,0,0,1,0-.782Z" transform="translate(-427.288 3156.5)" fill="#161615"/>
    <path id="Path_37" data-name="Path 37" d="M359.412,195.779c.148.161.173.349.057.837,0-.085,0-.17,0-.255a1.651,1.651,0,0,0,.015-.339c-.013-.075-.091-.138-.139-.207l.066-.036" transform="translate(-426.908 3166.259)" fill="#161615"/>
    <path id="Path_38" data-name="Path 38" d="M359.436,234.954q.044-.445.088-.891l.08.008c-.029.27-.057.541-.091.811,0,.025-.055.043-.084.064Z" transform="translate(-426.959 3143.002)" fill="#161615"/>
    <path id="Path_39" data-name="Path 39" d="M359.323,236.314q.013.245.027.49l-.1-.006q.039-.238.077-.476l-.008-.008" transform="translate(-426.853 3141.635)" fill="#161615"/>
    <path id="Path_40" data-name="Path 40" d="M359.869,231.563c.008-.078.016-.156.024-.234l.041-.006a.849.849,0,0,1,.015.128.8.8,0,0,1-.022.122l-.058-.009" transform="translate(-427.226 3144.667)" fill="#161615"/>
    <path id="Path_41" data-name="Path 41" d="M359.922,200.081v-.207h.027v.208h-.027" transform="translate(-427.258 3163.772)" fill="#161615"/>
    <path id="Path_42" data-name="Path 42" d="M337.7,193.757v-.216l.056,0c.006.075.013.151.02.227l-.075-.008" transform="translate(-413.76 3167.62)" fill="#161615"/>
    <path id="Path_43" data-name="Path 43" d="M356.41,243.232h-.259l.313-.221c-.034.122-.049.177-.064.231l.011-.011" transform="translate(-424.967 3137.567)" fill="#161615"/>
    <path id="Path_44" data-name="Path 44" d="M338.172,199.27c.005.1.008.158.011.215l-.043.013a.267.267,0,0,1-.033-.1c0-.031.028-.06.065-.132" transform="translate(-414.006 3164.138)" fill="#161615"/>
    <path id="Path_45" data-name="Path 45" d="M359.581,194.179v.192h-.026v-.192h.026" transform="translate(-427.035 3167.232)" fill="#161615"/>
    <path id="Path_46" data-name="Path 46" d="M281.84,226.333l.027-.275.071,0v.283Z" transform="translate(-379.825 3147.865)" fill="#161615"/>
    <path id="Path_47" data-name="Path 47" d="M281.83,227.667v-.27h.049v.272l-.049,0" transform="translate(-379.819 3147.052)" fill="#161615"/>
    <path id="Path_48" data-name="Path 48" d="M152.724,303.3l.108-.726.064.008q-.045.365-.09.729l-.082-.011" transform="translate(-301.391 3101.384)" fill="#161615"/>
    <path id="Path_49" data-name="Path 49" d="M274.8,279.117l.276.083-.028.057-.239-.151-.01.011" transform="translate(-375.547 3115.64)" fill="#161615"/>
    <path id="Path_50" data-name="Path 50" d="M302.974,173.687l-.11-.267c.063,0,.119-.01.124,0,.035.082.058.168.086.252l-.1.013" transform="translate(-392.597 3179.843)" fill="#161615"/>
    <path id="Path_51" data-name="Path 51" d="M232.7,215.856V215.6h.021v.254H232.7" transform="translate(-349.973 3154.217)" fill="#161615"/>
    <path id="Path_52" data-name="Path 52" d="M232.925,213.819l-.078.348-.048-.016.126-.33v0" transform="translate(-350.035 3155.3)" fill="#161615"/>
    <path id="Path_53" data-name="Path 53" d="M233.138,212.46q-.042.266-.084.533v0c0-.181-.141-.385.086-.531l0,0" transform="translate(-350.164 3156.126)" fill="#161615"/>
    <path id="Path_54" data-name="Path 54" d="M232.521,217.314c0,.056,0,.112,0,.168a.128.128,0,0,1-.032.005v-.173h.034" transform="translate(-349.845 3153.177)" fill="#161615"/>
    <path id="Path_55" data-name="Path 55" d="M233.337,211.29c-.027.152-.055.3-.081.457l0,.007c-.031-.163-.133-.34.083-.46Z" transform="translate(-350.283 3156.836)" fill="#161615"/>
    <path id="Path_56" data-name="Path 56" d="M233.456,210.692l-.06-.388.053-.005c0,.128,0,.256,0,.387l.006.006" transform="translate(-350.396 3157.438)" fill="#161615"/>
    <path id="Path_57" data-name="Path 57" d="M204.9,245.463q.036-.638.073-1.275l.016,0v1.292l-.089-.02" transform="translate(-333.083 3136.852)" fill="#161615"/>
    <path id="Path_58" data-name="Path 58" d="M432.665,273.782l-.084-.208.074-.026.061.217-.05.017" transform="translate(-471.397 3119.017)" fill="#161615"/>
    <rect id="Rectangle_1" data-name="Rectangle 1" width="1.208" height="7.688" transform="translate(-146.765 3336.395)" fill="#161615"/>
    <path id="Path_59" data-name="Path 59" d="M176.215,132.571v5.569h-1.087v-7.689h1.516l1.241,4.6v-4.6h1.076v7.689H177.72Z" transform="translate(-315.001 3205.944)" fill="#161615"/>
    <path id="Path_60" data-name="Path 60" d="M200.711,130.227c1.176,0,1.779.7,1.779,1.933v.241h-1.142v-.318c0-.549-.219-.758-.6-.758s-.6.209-.6.758c0,1.581,2.361,1.878,2.361,4.075,0,1.23-.615,1.933-1.8,1.933s-1.8-.7-1.8-1.933v-.472h1.142v.549c0,.549.242.747.627.747s.626-.2.626-.747c0-1.582-2.361-1.878-2.361-4.075,0-1.23.6-1.933,1.779-1.933" transform="translate(-329.441 3206.08)" fill="#161615"/>
    <path id="Path_61" data-name="Path 61" d="M221.216,130.451h3.735v1.1h-1.263v6.59h-1.208v-6.59h-1.263Z" transform="translate(-342.998 3205.944)" fill="#161615"/>
    <rect id="Rectangle_2" data-name="Rectangle 2" width="1.208" height="7.688" transform="translate(-112.703 3336.395)" fill="#161615"/>
    <path id="Path_62" data-name="Path 62" d="M261.035,130.451h3.735v1.1h-1.263v6.59H262.3v-6.59h-1.263Z" transform="translate(-367.187 3205.944)" fill="#161615"/>
    <path id="Path_63" data-name="Path 63" d="M285.232,130.451v5.931c0,.549.241.747.626.747s.626-.2.626-.747v-5.931h1.142v5.855c0,1.23-.615,1.933-1.8,1.933s-1.8-.7-1.8-1.933v-5.855Z" transform="translate(-381.152 3205.944)" fill="#161615"/>
    <path id="Path_64" data-name="Path 64" d="M306.676,130.451h3.735v1.1h-1.263v6.59h-1.208v-6.59h-1.263Z" transform="translate(-394.913 3205.944)" fill="#161615"/>
    <path id="Path_65" data-name="Path 65" d="M159.136,388.935v-6.046h-1.314V382.5h3.041v.385h-1.3v6.046Z" transform="translate(-304.488 3052.829)" fill="#161615"/>
    <path id="Path_66" data-name="Path 66" d="M181.729,385.48v.386h-1.755v2.683h2.113v.386h-2.536V382.5h2.536v.386h-2.113v2.591Z" transform="translate(-317.688 3052.829)" fill="#161615"/>
    <path id="Path_67" data-name="Path 67" d="M201.687,382.5c.983,0,1.378.542,1.378,1.452v.56a1.408,1.408,0,0,0,0,2.646v1a1.44,1.44,0,0,0,.157.772h-.441a1.506,1.506,0,0,1-.138-.772v-1.01c0-.855-.469-1.094-1.2-1.094h-.67v2.876h-.423V382.5Zm-.239,3.17c.753,0,1.194-.212,1.194-1.075v-.607c0-.689-.267-1.1-.965-1.1h-.909v2.784Z" transform="translate(-330.319 3052.829)" fill="#161615"/>
    <path id="Path_68" data-name="Path 68" d="M223.3,382.5c.983,0,1.378.542,1.378,1.452v.56a1.407,1.407,0,0,0,0,2.646v1a1.441,1.441,0,0,0,.156.772h-.441a1.506,1.506,0,0,1-.138-.772v-1.01c0-.855-.468-1.094-1.2-1.094h-.67v2.876h-.423V382.5Zm-.239,3.17c.753,0,1.194-.212,1.194-1.075v-.607c0-.689-.266-1.1-.964-1.1h-.91v2.784Z" transform="translate(-343.449 3052.829)" fill="#161615"/>
    <path id="Path_69" data-name="Path 69" d="M244.044,387.5l-.322,1.424h-.386l1.406-6.44h.616l1.433,6.44h-.423l-.321-1.424Zm.064-.367h1.874l-.946-4.162Z" transform="translate(-356.436 3052.843)" fill="#161615"/>
    <path id="Path_70" data-name="Path 70" d="M268.979,383.971v.138h-.4v-.165c0-.68-.257-1.194-.956-1.194s-.955.505-.955,1.185c0,1.562,2.324,1.59,2.324,3.363,0,.927-.4,1.607-1.388,1.607s-1.388-.68-1.388-1.607v-.331h.4v.358c0,.689.267,1.185.974,1.185s.974-.5.974-1.185c0-1.544-2.324-1.571-2.324-3.363,0-.965.423-1.59,1.369-1.6.973,0,1.369.68,1.369,1.608" transform="translate(-370.332 3052.914)" fill="#161615"/>
    <path id="Path_71" data-name="Path 71" d="M290.217,383.971v.138h-.4v-.165c0-.68-.257-1.194-.956-1.194s-.955.505-.955,1.185c0,1.562,2.324,1.59,2.324,3.363,0,.927-.4,1.607-1.387,1.607s-1.388-.68-1.388-1.607v-.331h.4v.358c0,.689.267,1.185.974,1.185s.974-.5.974-1.185c0-1.544-2.324-1.571-2.324-3.363,0-.965.423-1.59,1.369-1.6.973,0,1.369.68,1.369,1.608" transform="translate(-383.234 3052.914)" fill="#161615"/>
    <path id="Path_72" data-name="Path 72" d="M309.3,387.5l-.321,1.424H308.6L310,382.48h.616l1.434,6.44h-.423l-.321-1.424Zm.064-.367h1.874l-.946-4.162Z" transform="translate(-396.079 3052.843)" fill="#161615"/>
    <path id="Path_87" data-name="Path 87" d="M443.844,106.055a6.363,6.363,0,0,1-.57,3.062c.248-1.009.371-2.04.57-3.062" transform="translate(-477.892 3220.764)" fill="#161615"/>
    <path id="Path_88" data-name="Path 88" d="M336.844,98a2.034,2.034,0,0,1,.218,1.229.18.18,0,0,1-.186.2c-.126-.009-.158-.128-.139-.23a3.092,3.092,0,0,0,.022-.99c-.007-.048.04-.1.086-.208" transform="translate(-413.17 3225.659)" fill="#161615"/>
    <path id="Path_89" data-name="Path 89" d="M336.991,95.946c-.139-.187-.333-.354-.139-.585.076-.091-.022-.153-.073-.219a.1.1,0,0,1,.021-.15.191.191,0,0,1,.119-.038c.074.009.071.077.072.133,0,.286,0,.573,0,.859" transform="translate(-413.184 3227.508)" fill="#161615"/>
    <path id="Path_90" data-name="Path 90" d="M336.882,92.461a1.352,1.352,0,0,1,.068.611c0,.1-.05.171-.154.169s-.106-.085-.111-.158a.776.776,0,0,1,.2-.622" transform="translate(-413.14 3229.022)" fill="#161615"/>
    <path id="Path_91" data-name="Path 91" d="M337.738,107.085c.022.17.031.268.048.366.011.068.058.15-.064.152a.107.107,0,0,1-.109-.111.434.434,0,0,1,.125-.407" transform="translate(-413.703 3220.138)" fill="#161615"/>
    <path id="Path_92" data-name="Path 92" d="M336.939,90.117a.371.371,0,0,1,.105.468c-.2-.121-.142-.278-.105-.468" transform="translate(-413.274 3230.446)" fill="#161615"/>
    <path id="Path_93" data-name="Path 93" d="M337.51,105.227c-.065-.017-.08-.078-.105-.128s-.059-.117.018-.148c.107-.044.117.042.126.114a.184.184,0,0,1-.039.162" transform="translate(-413.561 3221.441)" fill="#161615"/>
    <path id="Path_94" data-name="Path 94" d="M452.068,104.88c.06-.381.065-.775.109-1.164a1.1,1.1,0,0,1-.109,1.164" transform="translate(-483.234 3222.185)" fill="#161615"/>
    <path id="Path_95" data-name="Path 95" d="M451.749,108.1c-.011.061.011.154-.1.152-.045,0-.06-.054-.06-.1a.13.13,0,0,1,.086-.135c.057-.018.065.033.072.081" transform="translate(-482.945 3219.574)" fill="#161615"/>
  </g>
</svg>
