<svg xmlns="http://www.w3.org/2000/svg" width="38.268" height="38.493" viewBox="0 0 38.268 38.493">
  <g id="Group_52" data-name="Group 52" transform="translate(0.707 0.725)">
    <path id="Path_126" data-name="Path 126" d="M18.271,29.521a2.417,2.417,0,0,1-3.418,0L11.429,26.1a2.417,2.417,0,0,1,0-3.418L31.7,2.416a4.834,4.834,0,1,1,6.836,6.836Z" transform="translate(-2.889 -1)" fill="none" stroke="#00aae8" stroke-linecap="round" stroke-linejoin="round" stroke-width="1"/>
    <path id="Path_127" data-name="Path 127" d="M33.96,2.465l-.52-.52a3.223,3.223,0,0,0-4.557,0L22.616,8.211" transform="translate(-5.201 -1)" fill="none" stroke="#00aae8" stroke-linecap="round" stroke-linejoin="round" stroke-width="1"/>
    <path id="Path_128" data-name="Path 128" d="M11.255,40.767C9.366,42.654,1,44.185,1,44.185S2.531,35.819,4.418,33.93a4.834,4.834,0,1,1,6.837,6.837Z" transform="translate(-1 -7.124)" fill="none" stroke="#00aae8" stroke-linecap="round" stroke-linejoin="round" stroke-width="1"/>
    <line id="Line_21" data-name="Line 21" y1="5.127" x2="5.127" transform="translate(0 31.933)" fill="none" stroke="#00aae8" stroke-linecap="round" stroke-linejoin="round" stroke-width="1"/>
    <line id="Line_22" data-name="Line 22" x2="6.837" y2="6.837" transform="translate(23.111 7.112)" fill="none" stroke="#00aae8" stroke-linecap="round" stroke-linejoin="round" stroke-width="1"/>
  </g>
</svg>
