<svg xmlns="http://www.w3.org/2000/svg" width="45.925" height="38.476" viewBox="0 0 45.925 38.476">
  <g id="Group_52" data-name="Group 52" transform="translate(0.704 0.712)">
    <path id="Path_126" data-name="Path 126" d="M19.832,29.521a3.358,3.358,0,0,1-4.124,0L11.576,26.1a2.137,2.137,0,0,1,0-3.418L36.034,2.416a6.714,6.714,0,0,1,8.249,0,4.274,4.274,0,0,1,0,6.836Z" transform="translate(-1.27 -1)" fill="none" stroke="#00aae8" stroke-linecap="round" stroke-linejoin="round" stroke-width="1"/>
    <path id="Path_127" data-name="Path 127" d="M36.3,2.465l-.628-.52a4.477,4.477,0,0,0-5.5,0L22.616,8.211" transform="translate(-1.601 -1)" fill="none" stroke="#00aae8" stroke-linecap="round" stroke-linejoin="round" stroke-width="1"/>
    <path id="Path_128" data-name="Path 128" d="M13.374,40.767C11.1,42.654,1,44.185,1,44.185S2.847,35.819,5.124,33.93a6.717,6.717,0,0,1,8.25,0,4.274,4.274,0,0,1,0,6.837Z" transform="translate(-1 -7.124)" fill="none" stroke="#00aae8" stroke-linecap="round" stroke-linejoin="round" stroke-width="1"/>
    <line id="Line_21" data-name="Line 21" y1="5.127" x2="6.187" transform="translate(0 31.933)" fill="none" stroke="#00aae8" stroke-linecap="round" stroke-linejoin="round" stroke-width="1"/>
    <line id="Line_22" data-name="Line 22" x2="8.25" y2="6.837" transform="translate(27.889 7.112)" fill="none" stroke="#00aae8" stroke-linecap="round" stroke-linejoin="round" stroke-width="1"/>
  </g>
</svg>
