<svg xmlns="http://www.w3.org/2000/svg" width="25.147" height="20.755" viewBox="0 0 25.147 20.755">
  <g id="Group_18" data-name="Group 18" transform="translate(0.5 0.574)">
    <path id="Path_99" data-name="Path 99" d="M26.147,10.545,23.952,10l1.1-2.2-2.7.768a4.917,4.917,0,0,0-8.272,3.622v1.1c-3.884.8-7.281-1.317-10.427-4.939q-.823,4.39,1.646,6.586L2,14.387c.445,2.271,1.495,4.061,4.39,4.39l-2.744,1.1c1.1,2.2,2.816,2.535,5.488,2.744A11.8,11.8,0,0,1,2,24.814c14,6.222,21.952-2.924,21.952-10.976V12.38Z" transform="translate(-2 -7.247)" fill="none" stroke="#00aae8" stroke-linecap="round" stroke-linejoin="round" stroke-width="1"/>
  </g>
</svg>
